<mxfile host="app.diagrams.net" modified="2020-06-09T06:25:13.688Z" agent="5.0 (Macintosh; Intel Mac OS X 10_15_4) AppleWebKit/537.36 (KHTML, like Gecko) Chrome/83.0.4103.61 Safari/537.36" etag="FaTd_RsWcmi65UfTd9fH" version="13.1.14" type="github">
  <diagram id="PJfUB0iH4OetRK93qm0U" name="第 1 页">
    <mxGraphModel dx="1977" dy="1288" grid="0" gridSize="10" guides="1" tooltips="1" connect="1" arrows="1" fold="1" page="1" pageScale="1" pageWidth="4681" pageHeight="3300" background="#fafafa" math="0" shadow="0">
      <root>
        <mxCell id="0" />
        <mxCell id="1" parent="0" />
        <mxCell id="4OkLxB9ZJjPwwD340K5b-1" value="" style="shape=image;verticalLabelPosition=bottom;verticalAlign=top;imageAspect=0;aspect=fixed;image=data:image/png,iVBORw0KGgoAAAANSUhEUgAAAggAAAIICAYAAAAL/BZjAAAKBGlDQ1BJQ0MgUHJvZmlsZQAASImVlndUFFkaxV9V50TohiY10MQm59CA5JwkSBaFpslJaKKICRkcgRFFRAQUQYao4IgEMSGiGBgEFDAPyCCgrGJAVNTeQiaeObt79tZ59f3O96ruee/VH3UBIDlxkpLiYSEAEhJTed6ONsyAwCAmbgqQkYsA2IDK4aYkWXt6ugFEv9e/6/0YgFbqHc0Vr3/O/1cJh0ekcAGAPBHeGJ7CTUD4FMJ63CReKsK/IqyQkZqEMIxHWISHLBBhxgpHrbLOCoetst23Z3y8bREOAABP5nB4UQAQw5E+M50bhfgQcxHWSQyPSUT4DMIW3GgOMk98h7BGQsImhElMhFXC/uIT9TfPsD88OZyoP3h1L9+EdrO1+z+P4n8rIT7td/+VEydnRduuRSodGYwNb6LlvK6l5zIZITE5POAGbIEdUxqA1IjM1JUXbDclbebFREWnMq2RrxTBdE7kamkw9XR0TQBY+eartm/p35wh+s0/e7t2A2DeyOfzz/3Zc50GoO0Vsu/Hf/ZYsQAIRANw/SA3jZf+2zGs3DCACASBCJAAMkABqABNoAeMgBmwAvbABXgAHxAINgIuiAYJgAcyQDbYCfJAAdgHDoJyUAWOgwZwEpwGneA8uAyugVtgCIyCh2ACTIMXYAG8B8sQBOEgCkSDJCBZSAlSh/QgNmQB2UNukDcUCIVCUVAilAZlQ7ugAqgYKoeqoUboJ+gsdBm6AQ1D96FJaA56A32CUTAZFoGlYWVYG2bD1rAr7ANvgKPgZDgLzoX3wmVwDXwC7oAvw7fgUXgCfgEvogCKhKKj5FCaKDbKFuWBCkJFoniobah8VCmqBtWC6kb1o+6gJlDzqI9oLJqGZqI10WZoJ7QvmotORm9DF6LL0Q3oDnQf+g56Er2A/oqhYBgYdYwpxhkTgInCZGDyMKWYOkw75ipmFDONeY/FYulYFtYY64QNxMZit2ALsUewrdge7DB2CruIw+EkcOo4c5wHjoNLxeXhDuNO4C7hRnDTuA94El4Wr4d3wAfhE/E5+FJ8E/4ifgQ/g18mCBGUCKYED0I4YTOhiFBL6CbcJkwTlonCRBbRnOhDjCXuJJYRW4hXiY+Ib0kkkjzJhORFiiHtIJWRTpGukyZJH8lUshrZlhxMTiPvJdeTe8j3yW8pFIoyxYoSREml7KU0Uq5QnlA+CNAEtAScBcIFtgtUCHQIjAi8FCQIKglaC24UzBIsFWwTvC04L0QQUhayFeIIbROqEDorNC60KEwT1hX2EE4QLhRuEr4hPEvFUZWp9tRwai71OPUKdYqGoinQbGlc2i5aLe0qbVoEK8IScRaJFSkQOSkyKLIgShU1EPUTzRStEL0gOkFH0ZXpzvR4ehH9NH2M/klMWsxaLEJsj1iL2IjYkriUuJV4hHi+eKv4qPgnCaaEvUScxH6JTonHkmhJNUkvyQzJo5JXJeelRKTMpLhS+VKnpR4wYIYaw5uxhXGcMcBYlJaRdpROkj4sfUV6XoYuYyUTK1Mic1FmTpYmayEbI1sie0n2OVOUac2MZ5Yx+5gLcgw5J7k0uWq5QblleZa8r3yOfKv8YwWiAlshUqFEoVdhQVFW0V0xW7FZ8YESQYmtFK10SKlfaUmZpeyvvFu5U3mWJc5yZmWxmlmPVCgqlirJKjUqd1WxqmzVONUjqkNqsJqhWrRahdptdVjdSD1G/Yj6sAZGw0QjUaNGY1yTrGmtma7ZrDmpRddy08rR6tR6qa2oHaS9X7tf+6uOoU68Tq3OQ12qrotujm637hs9NT2uXoXeXX2KvoP+dv0u/dcG6gYRBkcN7hnSDN0Ndxv2Gn4xMjbiGbUYzRkrGocaVxqPs0XYnuxC9nUTjImNyXaT8yYfTY1MU01Pm74y0zSLM2sym13DWhOxpnbNlLm8Oce82nzCgmkRanHMYsJSzpJjWWP51ErBKtyqzmrGWtU61vqE9UsbHRueTbvNkq2p7VbbHjuUnaNdvt2gPdXe177c/omDvEOUQ7PDgqOh4xbHHieMk6vTfqdxZ2lnrnOj84KLsctWlz5Xsus613LXp25qbjy3bnfY3cX9gPujtUprE9d2egAPZ48DHo89WZ7Jnue8sF6eXhVez7x1vbO9+9fR1oWsa1r33sfGp8jnoa+Kb5pvr5+gX7Bfo9+Sv51/sf9EgHbA1oBbgZKBMYFdQbggv6C6oMX19usPrp8ONgzOCx7bwNqQueHGRsmN8RsvhAiGcELaQjGh/qFNoZ85HpwazmKYc1hl2ALXlnuI+yLcKrwkfC7CPKI4YibSPLI4cjbKPOpA1Fy0ZXRp9HyMbUx5zOtYp9iq2KU4j7j6OH68f3xrAj4hNOFsIjUxLrFvk8ymzE3DSepJeUkTyabJB5MXeK68uhQoZUNKV6oI8nMdSFNJ+y5tMt0ivSL9Q4ZfRlumcGZi5sBmtc17Ns9kOWT9uAW9hbulN1sue2f25FbrrdXboG1h23q3K2zP3T69w3FHw07izridP+fo5BTnvNvlv6s7Vzp3R+7Ud47fNecJ5PHyxneb7a76Hv19zPeDe/T3HN7zNT88/2aBTkFpwedCbuHNH3R/KPuBvzdy72CRUdHRfdh9ifvG9lvubygWLs4qnjrgfqCjhFmSX/LuYMjBG6UGpVWHiIfSDk2UuZV1HVY8vO/w5/Lo8tEKm4rWSkblnsqlI+FHRo5aHW2pkq4qqPp0LObYvWrH6o4a5ZrS49jj6cef1frV9v/I/rGxTrKuoO5LfWL9RIN3Q1+jcWNjE6OpqBluTmueOxF8Yuik3cmuFs2W6lZ6a8EpcCrt1POfQn8aO+16ureN3dZyRulMZTutPb8D6tjcsdAZ3TnRFdg1fNblbG+3WXf7Oa1z9eflzldcEL1QdJF4Mfci/1LWpcWepJ75y1GXp3pDeh9eCbhyt8+rb/Cq69Xr1xyuXem37r903fz6+RumN87eZN/svGV0q2PAcKD9Z8Of2weNBjtuG9/uGjIZ6h5eM3xxxHLk8h27O9fuOt+9Nbp2dHjMd+zeePD4xL3we7P34++/fpD+YPnhjkeYR/mPhR6XPmE8qflF9ZfWCaOJC5N2kwNP1z19OMWdevFryq+fp3OfUZ6VzsjONM7qzZ6fc5gber7++fSLpBfL83n/Ev5X5UuVl2deWb0aWAhYmH7Ne81/U/hW4m39O4N3vYuei0/eJ7xfXsr/IPGh4SP7Y/8n/08zyxmfcZ/Lvqh+6f7q+vURP4HPT+LwON+iAAoZcGQkAG/qAaAEAkAbQvLD+tVM9lumgf6Sbv4Dr+a2bzICoAUp3ivppgeAU8hQtkK8dwCwEid9rACsr//H+E0pkfp6q15kHhJNPvD5b5GUhOsG4AuPz18+wud/qUUWex+AnuTVLLgiLJKQj63kTDAi2/aPXPZvWZW9CNhD8eEAAABsZVhJZk1NACoAAAAIAAQBGgAFAAAAAQAAAD4BGwAFAAAAAQAAAEYBKAADAAAAAQACAACHaQAEAAAAAQAAAE4AAAAAAAAAkAAAAAEAAACQAAAAAQACoAIABAAAAAEAAAIIoAMABAAAAAEAAAIIAAAAALeyWNwAAAAJcEhZcwAAFiUAABYlAUlSJPAAAEAASURBVHgB7d0JfFTlufjxZyb7HgIhLGHfZRMBkUVEQUQRsHWtWltr1Xq1t+2919pae7vca6+3i9V/9ba1WlvrrtC6AHXBXRFUUBbZJexLQkL2PfN/nwMTZuZMQkJmO8nv9ROTOXPOe97zPYc5z3m3cdXV1XmEhAACCCCAAAII+Ai4ff7mTwQQQAABBBBAwBIgQOBCQAABBBBAAAGbAAGCjYQFCCCAAAIIIECAwDWAAAIIIIAAAjYBAgQbCQsQQAABBBBAgACBawABBBBAAAEEbAIECDYSFiCAAAIIIIAAAQLXAAIIIIAAAgjYBAgQbCQsQAABBBBAAAECBK4BBBBAAAEEELAJECDYSFiAAAIIIIAAAgQIXAMIIIAAAgggYBMgQLCRsAABBBBAAAEECBC4BhBAAAEEEEDAJkCAYCNhAQIIIIAAAggQIHANIIAAAggggIBNgADBRsICBBBAAAEEECBA4BpAAAEEEEAAAZsAAYKNhAUIIIAAAgggQIDANYAAAggggAACNgECBBsJCxBAAAEEEECAAIFrAAEEEEAAAQRsAgQINhIWIIAAAggggAABAtcAAggggAACCNgECBBsJCxAAAEEEEAAAQIErgEEEEAAAQQQsAkQINhIWIAAAggggAACBAhcAwgggAACCCBgEyBAsJGwAAEEEEAAAQQIELgGEEAAAQQQQMAmQIBgI2EBAggggAACCBAgcA0ggAACCCCAgE2AAMFGwgIEEEAAAQQQIEDgGkAAAQQQQAABmwABgo2EBQgggAACCCBAgMA1gAACCCCAAAI2AQIEGwkLEEAAAQQQQIAAgWsAAQQQQAABBGwCBAg2EhYggAACCCCAAAEC1wACCCCAAAII2AQIEGwkLEAAAQQQQAABAgSuAQQQQAABBBCwCXT5AKGpqUlWrFgh27Zts+GwAAEEEEAAga4q0OUDhKKiIrn33nvlvffe66rXAMeNAAIIIICATaDLBwg2ERYggAACCCCAgBAgcBEggAACCCCAgE2AAMFGwgIEEEAAAQQQIEDgGkAAAQQQQAABmwABgo2EBQgggAACCCBAgMA1gAACCCCAAAI2AQIEGwkLEEAAAQQQQIAAgWsAAQQQQAABBGwCBAg2EhYggAACCCCAAAEC1wACCCCAAAII2AQIEGwkLEAAAQQQQAABAgSuAQQQQAABBBCwCRAg2EhYgAACCCCAAAIECFwDCCCAAAIIIGATIECwkbAAAQQQQAABBAgQuAYQQAABBBBAwCZAgGAjYQECCCCAAAIIECBwDSCAAAIIIICATYAAwUbCAgQQQAABBBAgQOAaQAABBBBAAAGbAAGCjYQFCCCAAAIIIECAwDWAAAIIIIAAAjYBAgQbCQsQQAABBBBAgACBawABBBBAAAEEbAIECDYSFiCAAAIIIIAAAQLXAAIIIIAAAgjYBAgQbCQsQAABBBBAAAECBK4BBBBAAAEEELAJECDYSFiAAAIIIIAAAgQIXAMIIIAAAgggYBMgQLCRsAABBBBAAAEECBC4BhBAAAEEEEDAJkCAYCNhAQIIIIAAAggQIHANIIAAAggggIBNgADBRsICBBBAAAEEECBA4BpAAAEEEEAAAZsAAYKNhAUIIIAAAgggQIDANYAAAggggAACNgECBBsJCxBAAAEEEECAAIFrAAEEEEAAAQRsAgQINhIWIIAAAggggAABAtcAAggggAACCNgECBBsJCxAAAEEEEAAAQIErgEEEEAAAQQQsAkQINhIWIAAAggggAACBAhcAwgggAACCCBgEyBAsJGwAAEEEEAAAQQIELgGEEAAAQQQQMAmQIBgI2EBAggggAACCBAgcA0ggAACCCCAgE2AAMFGwgIEEEAAAQQQIEDgGkAAAQQQQAABmwABgo2EBQgggAACCCBAgMA1gAACCCCAAAI2AQIEGwkLEEAAAQQQQIAAgWsAAQQQQAABBGwCBAg2EhYggAACCCCAAAEC1wACCCCAAAII2AQIEGwkLEAAAQQQQAABAgSuAQQQQAABBBCwCRAg2EhYgAACCCCAAAIECFwDCCCAAAIIIGATiLctCcGCuro6KSgokKKiIunRo4cMGjRIEhIS/HKuqamRiooKv2X6wuVySXZ2tsTFxfm9V1xcLLt27RK32y1DhgyR9PR0v/d5gQACCCCAAAKhEwh5gLBz50659957ZcuWLZKYmGgFAfPnz5frr7/eCha8RX/hhRfk0Ucflfh4/yL0799f/vM//1N69erlXVWWLl0qf/3rX628PB6P9OnTR2666SaZMmVK8zr8gQACCCCAAAKhE/C/O3cw3+rqarnvvvtEf//qV7+SvLw8Wb36I3nooT9aOX/729+W5ORk6+/CwkIZPHiwfPWrX7VqDby71oAhJyfH+1JWrVpl5alBxqWXXipVVVXy5JNPym9+8xv57W9/K3379m1elz8QQAABBBBAIDQCIQ0QtNbg888/l7vuukvGjx9vlXDhwgWyY8d20RoDDQa8NQOHDx+W4cOHy9SpU1s8ksbGRlm2bJkVSNx4442SlpZmrat/f+Mb35CXX35Zbr755ha35w0EEEAAAQQQODWBkHZS1OaBe+65R2bMmOFXGu1TkJqaajU56BsNDQ2iNQhaU9DU1GQ1HZSXl4s2H/imsrIyWb9+vUyaNKk5OND3NciYPHmyrF27VjSIICGAAAIIIIBAaAVCWoOgN3zf5gEtqjYJrFu3TiZOnChZWVlW6Wtra62gQJsiHnjgAfn444+toEFrHa655hrJz8+31jty5Ijs27dP+vXrZ732/k+bIUaOHClLliwRDSw0AOlI0sBEaz/eeecdv2xOP/10yczM9FvGCwQQQAABBLqCQEgDhEAwrR145JFHZNOmTfLrX/+6eWSCjmDQG/vy5ctl9uzZctVVV8mhQ4esG/6ePXvkpz/9qdWhUdfTjo7dunULzFoyMjJER0tosNHRpHk8/vjj8uKLL/plpf0p5s6d67eMFwgggAACCHQFgbAFCBoc/O1vf5PFixfL97//fRkzZkyzZ319vdX34IwzzpA5c+Y0d1IcNmyY3H777fLhhx/KxRdf3Dw0UvMKTJqHDonUYY8dTdpx8nvf+54sWrTILytvfwm/hbxAAAEEEECgCwiEJUDQG7p2IHzuuefkO9/5jsybN8+PUm+8GgjoDV5/vGnc2HHWnAk7duywFmm/Be1jcODAAe8qzb91md7YvaMimt84xT+0aWTo0KGnuDWbIYAAAggg0LkEOv74HeCh7flvvfWWNW+BjlpYuHCh7SlfOx9qAKHNCn7JxAragdFbK6B9C7T/gTZR+CatPfjiiy9EaxyYMMlXhr8RQAABBBAIjUDIA4SVK1eaeQ8ekkULF8lll13W3O/At7ja+fD++++3hj76jkJ49913rRkYvU/yaalpcuGFF8pHH31kBQTePPS1jmDQkQy+NRDe9/mNAAIIIIAAAh0TCGkTg06FrLMo6hwHe/busSZL8hZPawV0oiOdJlmHQ2rtgnZgLC0tlQEDBljbaK3CRRddJOede561mTvObfVRePPNN+Xuu++2OjRqx0Tt3Dhz5kw6EHpx+Y0AAggggECIBUIaIFRWVlrDD3WGRL3x+6akpCRrzgNdpt+zcN1110n37t1lxYoV8umnn1pNBbpMZ0xMSk5q3lSHPP7sZz+TZ599Vl555RVrW+3YuGDBApoXmpX4AwEEEEAAgdAKuMwTuf/sRKHN/6S5aZ8DnQ9Bg4aUlJQWmwy0b4Oup791PW8/hZPu4CQraG2Hfk+ENofobxICCCCAAAIIiIS0BuFUQHXSI53T4GRJ+xroqAYSAggggAACCIRfIOSdFMNfZPaAAAIIIIAAAuEWIEAItzD5I4AAAggg4EABAgQHnjSKjAACCCCAQLgFCBDCLUz+CCCAAAIIOFCAAMGBJ40iI4AAAgggEG4BAoRwC5M/AggggAACDhQgQHDgSaPICCCAAAIIhFuAACHcwuSPAAIIIICAAwUIEBx40igyAggggAAC4RYgQAi3MPkjgAACCCDgQAECBAeeNIqMAAIIIIBAuAUIEMItTP4IIIAAAgg4UIAAwYEnjSIjgAACCCAQbgEChHALkz8CCCCAAAIOFCBAcOBJo8gIIIAAAgiEW4AAIdzC5I8AAggggIADBQgQHHjSKDICCCCAAALhFiBACLcw+SOAAAIIIOBAAQIEB540iowAAggggEC4BQgQwi1M/ggggAACCDhQgADBgSeNIiOAAAIIIBBuAQKEcAuTPwIIIIAAAg4UIEBw4EmjyAgggAACCIRbgAAh3MLkjwACCCCAgAMFCBAceNIoMgIIIIAAAuEWIEAItzD5I4AAAggg4EABAgQHnjSKjAACCCCAQLgFCBDCLUz+CCCAAAIIOFCAAMGBJ40iI4AAAgggEG4BAoRwC5M/AggggAACDhQgQHDgSaPICCCAAAIIhFuAACHcwuSPAAIIIICAAwUIEBx40igyAggggAAC4RYgQAi3MPkjgAACCCDgQAECBAeeNIqMAAIIIIBAuAUIEMItTP4IIIAAAgg4UIAAwYEnjSIjgAACCCAQbgEChHALkz8CCCCAAAIOFCBAcOBJo8gIIIAAAgiEW4AAIdzC5I8AAggggIADBQgQHHjSKDICCCCAAALhFiBACLcw+SOAAAIIIOBAAQIEB540iowAAggggEC4BQgQwi1M/ggggAACCDhQgADBgSeNIiOAAAIIIBBuAQKEcAuTPwIIIIAAAg4UIEBw4EmjyAgggAACCIRbgAAh3MLkjwACCCCAgAMFCBAceNIoMgIIIIAAAuEWIEAItzD5I4AAAggg4EABAgQHnjSKjAACCCCAQLgFCBDCLUz+CCCAAAIIOFAg3oFl7lRFbmzwSF21R+ITXJKQ7Ap6bDUVTVJV2ii1VU1mHbdk5ca3uK5m0NQoUlHcIDWVTeKOc0l2XrzEJwbPO+gOjy/U/el+tXzJGcf229r6vIcAAggg0HkECBCieC6ryhplwxuV8vk71dJ/TJKcc12WxMX738i3f1Qtq/9RIYW76qWpScwNX6T30AQZPStVTpuZJi7/1aW6vEnWLC+XT1+psm7s1vrDEmTCBWkybEpqm492z8ZaWfX3ctm3pU4aG0RSMlwybHKyTLsiU1KzTCFICCCAAAKdWiAsAUJdXZ3s379fKisrpXv37pLXM09c7oA7mWH1eDxy6NAhKSkpkczMTOndu7e43cFbPcrKyuTgwYMSHx8vffv2laSkJEefmH2ba+WjFytk56e10lDnkcxc+01326oqefWPpZKc7pKJ89Mku3e8lBU2ysa3quTNv5ZJUqpbhk5OaXbQmoP3nymVT1+tkpHTkiV/VJIVMKxfcWz9lIw4yT/t5G4Ht9fJ648cleqyJhk3J1W6mf0WFtTL+jerrfzm3ZojCUn289lcEP5AAAEEEHC8QMgDhC1btsif//xn+fjjj62bvd7QL730Urn22mslOTm5GUyDiIcfflj++c9/SkNDg3kSdsmsWbPkW9/6lmRkZDSvp3+sWLFCnnzySdm3b58VVIwYMUJuueUWGTVqlN96Tnnx2WsV8uGSClNbIDLt8nRZs6zSVnRtetj+UY3U13rkgluyTwQCHpH+o5NkyT1HZMObVSeWmxy2r64yy6pl3OxUOe/67OZmhfxRifKPXxabmoUK6T080VZL4btzE7PJelOrUbyvQebenC1jz0uz3m6s90hiqks+WVol/d+plPHnp/tuxt8IIIAAAp1MIPjj+ikepD7l33///VJRUSF33323/N///Z98+ctftgKGxYsXS2OjecQ1SWsO/vKXv8jTTz8tX//61+WBBx6QG2+80QoE/vSnPzWvp+t+9tln8pvf/EaGDRtm/dZ8NejQ34cPH9ZVHJcO76yXPsMTZOG/5ciYc4/dgAMPoslU6x892Chp3dzSzwQEzck8uPfonyBp2W7Tz6BRPKbZQZP+3rW+1tiKjDo7pTk40Pf6DE+SQROSZPeGOinaXa+LWkxlhQ2yc22tDDo9yTRhnGiSiDN9JMbMSpOkFJfsWmf2c3y/LWbEGwgggAACjhYIaQ3C6tWrZf369XLvvffK5MmTLRi9se/cuVNefPFFWbBggdWUUFhYKC+99JJcc801VgChKw4ePNi0sTfJfffdJxdccIGMHj3aeq3b5eXlWTUL2dnZVp49evSQG264QZYuXSrXX3+9tcxJ/5u8MMPq9Jec5pbKo8eCpsDya9+B7F5xUnKgQY7sMwHFsBNBQrF5XVPhkb4j403TzbEt62ub5NAX9ZLTO056DT6xrr6rN/cB45Jl03s1UrSnXvIGJwburvm1BhAVJY0y1tRCBPaHyOgRJ7kDTHOD6Q9RbjpBZvYI6eXTXAb+QAABBBCIvkBIaxCGDx8h99xzj0ycONHvyPSGrk/93v4FGzZskKKiIpkxY4bfemeeeaakpKTIjh07rOXl5eWybt06mTJliniDA31D+yDoPj7+6GMriPDLxAEvsnvFiwYHrSW9qU+4MF1STU3B24+VWdX+B7bVypaV2p+g1HQadJv+ASdqH7QpoqyoUTJMX4ZgIxayeh7r41B+JHhA4i2LBgdaCxGsT0SijqDoGW9GNnhMgEIVgteM3wgggEBnFAjpI2D//v1Ef3xTaWmpfP755zJmzBhJSzt2Q9POhj179pTevXr7rirdunWzagt27dplLdcgYs+ePSbP/n7rJSSYXvymhuEf//iHaLOGb/Dgt2IbX2iTx+7du61y+m4yfPhwK7DxXRbJv3sNSZTpV2bKyufK5JU/HLWGLHqaPJLRPU7m3pQtvX1qFeprPKLNEkkpwQOPRNOhUUzzhA5ZbC3p+zoyIrGlfEwTg9ZWaMdKEgIIIIBA5xUIaYAQyKRNBo8//rgUFxfLnXfeaXVE1HW0ZkA7LCYkJvhtkpiYaI1O0CYIvWnX1NSIBgM5OTl+6+kLHfVQX18vtbW1tvfau0Dz+OMf/2h1hPTd9ne/+53MnTvXd1FE/978fpV88Fy5xJmH/zMuTJP0HG2SaJKda2plxZ9L5axLG2X0OceCLqupwdzYm0wAESy1tc+ADiLRDqMtJQ1QNNCwflpaieUIIIAAAo4XCFuAoDf4Rx55RJYsWSJ33HGH1cfAq6XNDfq+/gRLeoPSnzhzZ2zpZmV1eNR7VSs3s2B5B1umQya/+c1vykUXXeT3djRHSZQcbDDzH5RbQcEsMz9Cz4En+g2Mm1MvS+8vllVmJIR2QNRhiDrJkvZb0HkQVDXwFl9TbpoWzBvaybC1lGSaPsyZsSZlCrZebZXHGuKYcAoTLwXLj2UIIIAAArEpEJYAQWsOdITCU089Jd/97ndlzpw5fkevTQJaO6A/WhPgTTr0saqqSnJzc61Fqamp1hBInSshMGkzRWJSot/QycB12vpag4xBgwbJWWed1dZNwr5eYYEZcbCnQWZ9zT840B1375tg9T94/eFS0zGxzgoQtENherc4qTjSJI2m+t8dMCtj0V7T/mCSdjRsLWn/CLeZs+KI6cwYmLRZQfswpGXHMVlSIA6vEUAAgU4mELzBugMHqcHBa6++ZgUIt956q8yfP7+5c6I3W+1keODAASkoKPAusn4fPlxoTbDk7XOQnWXa2c3kSTq3gm/SeRN0ZMTQoUMlPb1zjsfXeQc0eX/7Hr/+rX0OtNlAOydq0omL+o5MsEYg7DWTMPmmpkaPHNhaZ27qbjMK4URNhO863r91WubkdLfs31Jv27eOgDhc0GBGQSQQIHjB+I0AAgh0UoGQBgjaZPDBBx/Iw488LFdddZUsWrTIaiYItNMbu0529O6771o1BPq+bvvGGyusPggTJkywNklLT7P6AOikSzpJkjfpyIa1a9fKxDMm2oIP7zpO/91zkKkdMTfqTe9Vi45eaE4mHtBag60rq60ZFnVOBE36nQujzk61goZ1r1U2jzLQIGLrh9VS8FmtDJmYJN3zT/T72Lup1vRxKBNtzvAmDSJOm5kih8xcDTqxkjfpqAWdFlq/n2Hg+CTTtON9h98IIIAAAp1RIKRNDPqkr8MctX/AkSNH5KGHHmo20/4EOg9Cnz59RIc9Xn755fLb3/5WtGOijnDQGgGdPOnqq6+W/Px8azvdRjsJvvHGG/K///u/Zn6EeWa5R5555hkZP368zLtQX3fOpP0KdHrl95+tkGW/K5F+5rsaMs3oBR2GqJ0UK0xnxckL0sycBydqBLSfwpmXpFsdG+vuK7a+s6HWfGHT5vdrJMvUDJxxUbrVT0HFtLngk5crZMuHNdawyDMXHZu9UgMNnT1x76Y6Wbm43JpRMb2725pj4Quz37HnpcqIaScmUOqc+hwVAggggEBIAwSd2VCbDzTpXAe+Sec3mDfvxA394osvtgKJV1991ZpBUUcq3HzzzXLFFVf4dTzUvgE/+clPrCaLR0zNhHZwPOOMM6xAIisry3cXjvxb2/v1i5q69TGTHvk8leuNetKCDEk3QcH2VTXW7IXarKCdEXMHxsvUM1Nk1IzU5omS9OB1/oNJF2dYv7XWQKddjjfxg86iOH5uml9HR+2zMHxqirjNFdB72IkgQ/PR4OSCb2XL2n9WyO71ddbQSJ3Rcepl6TLxIpO/maOBhAACCCDQuQVcpmPgsUbsKB2ndlTUL3XSYY/eeRKCFUVrJXTOA+1QqB0bvZMuBVu3Pcs0qNHZGC+77LKYnZVR+xBozYEGCPGmr4F2Rgyc5TDwmLXmoMp82VKcaVHQToUtra9NEN7ZGAPz0Pcqj3/NtE7MlJrZegfHwO15jQACCCDgXIGQ1iCcCoMGBr5f4tRSHtrcoBMpdcWktQntndZYhyvqz8lSS8GBbqfvaTCiPyQEEEAAga4lcPI7SNfy4GgRQAABBBBAwAgQIHAZIIAAAggggIBNgADBRsICBBBAAAEEECBA4BpAAAEEEEAAAZsAAYKNhAUIIIAAAgggQIDANYAAAggggAACNgECBBsJCxBAAAEEEECAAIFrAAEEEEAAAQRsAgQINhIWIIAAAggggAABAtcAAggggAACCNgECBBsJCxAAAEEEEAAAQIErgEEEEAAAQQQsAkQINhIWIAAAggggAACBAhcAwgggAACCCBgEyBAsJGwAAEEEEAAAQQIELgGEEAAAQQQQMAmQIBgI2EBAggggAACCBAgcA0ggAACCCCAgE0g3raEBWEROLijTja/XxWWvCOZ6fApKdJnRFIkd8m+EEAAAQSiIECAECH0QzvrZPULlRHaW/h2k9M3ngAhfLzkjAACCMSMAE0MMXMqKAgCCCCAAAKxI0CAEDvngpIggAACCCAQMwIECDFzKigIAggggAACsSNAgBA754KSIIAAAgggEDMCBAgxcyooCAIIIIAAArEjQIAQO+eCkiCAAAIIIBAzAgQIMXMqKAgCCCCAAAKxI0CAEDvngpIggAACCCAQMwIECDFzKigIAggggAACsSNAgBA754KSIIAAAgggEDMCBAgxcyooCAIIIIAAArEjQIAQO+eCkiCAAAIIIBAzAgQIMXMqKAgCCCCAAAKxI0CAEDvngpIggAACCCAQMwIECDFzKigIAggggAACsSNAgBA754KSIIAAAgggEDMCBAgxcyooCAIIIIAAArEjQIAQO+eCkiCAAAIIIBAzAgQIMXMqKAgCCCCAAAKxI0CAEDvngpIggAACCCAQMwIECDFzKigIAggggAACsSNAgBA754KSIIAAAgggEDMCBAgxcyooCAIIIIAAArEjQIAQO+eCkiCAAAIIIBAzAgQIMXMqKAgCCCCAAAKxI0CAEDvngpIggAACCCAQMwIECDFzKigIAggggAACsSNAgBA754KSIIAAAgggEDMCBAgxcyooCAIIIIAAArEjQIAQO+eCkiCAAAIIIBAzAgQIMXMqKAgCCCCAAAKxI0CAEDvngpIggAACCCAQMwIECDFzKigIAggggAACsSNAgBA754KSIIAAAgggEDMC8eEuSWNjo9TV1UlyUrK43K7m3dXX10tDQ0Pza98/UlJSfF9af1dWVkppaakkJCRITk6OxMXF2dZhAQIIIIAAAgiERiCsAcKRI0fk+eefl1WrVsm3v/1tmTBhQnOp33rrLXnyySebX3v/6NWrl3z3u9+VvLw87yJr+2eefka2bd9mLRs3bpzceOONMnDgwOZ1+AMBBBBAAAEEQicQtgBBg4K//OUvsnfvXtm1a5dUVVX5lXr79u1WDcL8+fPF5TpRs5CamioZGRnN627dulXuueceGT16tNxxxx1SW1srzz77rPzsZz+Te++9V7p169a8Ln8ggAACCCCAQGgEwhIgrF+/Xn75y1/KzJkz5corrpQ7f3SnXxCgRS8sLBStCbjqqqtaPBKPxyNLliwRDRq+853vSm5uD2vdAQMGyDe/+U1ZunSpXHvttS1uzxsIINCygMe81WT+jcX5BOgtr33snUazvgb0Hem8dCr7PVm5eB8BBEIvEJYAITk5WW677TaZOnWq7Ny50xYcaL+Ew4cPy8SJE0WDAG9fBO1f4JsqKirks88+k+nTpzcHB/p+//79reYKraW4+uqrxe3uyMeV7x75GwHnC1Saf1+bK6qlsqFRTs9Kl8x4//46NU1NstW8v66sQsrNOt0SE2REWoq17om6vBMOGhQcqK2TtaUVsq+6VpLj3NInOUnOzM6Q7IS2f4TUm3x2VdXIGpPP0foGyUmMl1HpaXJaRqoE2++JEvAXAghEQ6Dt/7rbUbphQ4fJ0KFDmwMDDQJ8kzYTlJeXW++/9NJL8u6771pvjxo1Si6//PLmJgatZSgoKJBrrrnGd3NJTEyUsWPHyssvv2zlk5WV5fd+e19o+XRf2hzim/Lz831f8jcCMS+wy9zAn957SHaYm3C86RQ85LTBfgFCmQkIHjfvrzty1Pr3p+vUmmXvmCB7Vq8e8uXePSTep0ZBg4MVRUfl5X2Hpc4EHgmmc3CDCTDqzd+fdcuSK/v2lP4pSSd1aTD5LD10RF47UGQ9FMSb/dWYTspvx8fL/D495YKe3QgSTqrICghEViAsAYL+S3cF/HP3DRK8AYLe4LW5QIOJkpISq89Cwc4C+cEPf2A1K1RXV1ujFbp3725T0b4HOjpC8+po0jwefPBBeeqpp/yy+vWvfy2zZ8/2W8YLBGJRQJ/OV5aUyQvmRq43/Dhz49fmg8C0zNyk1xaWyMicTJmf111yTK3d5xWVstTcuFfsL5ShpibhDFPr4E0fHS2XJbsPSrfkRPlSvzwZbZ74j5ob+7tHSuVDk9djTY3yvSH9JO0ko4pWlZTLclO23JRkuaRPrgxKTZHNlVXystnnS/sOmdfJMiLdPnrJWw5+I4BA5AXCEyCc5Dj0xq5Bgf5oXwJtImgyTyXjx4+3Oh/OPGemzJkzx1qu7/l2YvRmretr0OEbeHjfa+9vrZH40pe+JOfPOd9vU99RF35v8AKBGBPQ6v8ndu6T3uYGf7m5kX9gbuBbzc3dN2m1/loTRGQkJci1+b0kz/zW1DMpWypMUPGP3QdktXn/9Mx00RHJdU0eecfUNJh/gnKJqSmYYpoUjq2fIAPNjb7UDFU+UltvmgsaWw0QtBZiZXGp9cgw39RQTDqez/TETFMb4ZGnCvbJy4eKTJCQL4m6YxICCMSEQFQChJ49e8rdd98t8aZ60Xvz10Bg2rRpVo3C5k2brQBBOydq/4SioiIb1qFDh6ymBu3v0NGk+9bgZP7F8zuaFdsjEBUBvQmfmZsj83rmSF/ztK8BQmDSWobTsjJMQJBg/fi+38/c8OPMvwNdR//TOsA9NbWys6xSRpgbuvY30OStk9Ab+U0D+0hNY5Npwmj9Y2RvTZ0UmFqKvumpfrUTmt9Z3TJk2YFE2WP6RFSb2ohEd+t56TYkBBCIjEBU/jVqDcLGjRutGoTMzMzmI9VOiho0NDQem0BJ+xbk5ubKtm3H5j/wrqidHLVvwqBBg5r7K3jf4zcCXVHgrG6ZMtHc/Ft7As81nRG/ZmoXgqUC03mw0dTK9TDreEc17KyqljpTs6DBg3Zm/NjUSOyorLZqF/qbZWeY/en6J0uHTQfHGlN70atbkiRpdYRP0v4OuabD4/bSctlvAoms9Kh8JPmUiD8RQMAr4P+v1bs0zL91ZIPOabB8+XK/PWnQoHMmaL8ETenp6XLuuefKJ598YnUi9K6scyN89uln1igIffonIdDVBbRivrXgoDUfvTG/X1Qi6aapbfLxmgJd/0jdsUBdaxTu3b5bluw5KOtNE8QnptPiM6ZZ4A/mZ7sJGE6WNLgwFROSkWC/+bs1QEhKtPpLlJoggoQAArEjYP8XG4GyDR48WC6++GL505/+JDU1NaKjF7QZ4dFHH7XmRvB2DNTahAsvvFDeeOMNa1IknVRJA4K//OUvMnDQQJk3b14ESssuEOi8AiXmpvz43oNSap7yF+TnWZ0UvUdba2oUNK00AYHe3P9laH/pa0YsFJkawFcOF8uawyXytLnxf2dIvmQEDKX05qG/q00zhKakIP0LNLBJM9tqAKF9HkgIIBA7AmEPELQDoM6C6NtXQJfddNNNVg3BsmXLrNEDSUlJcvrpp8vNN98svs0OI0aMkB//+Mfy9NNPyy9+8Qvruxh0ma4XbHRD7NBSEgRiW0Cf7J80Qx63maaDs/N6yIWm/4Jv8tbN6U38uv69ZbAZaaApKz5FrjOdHLWD4l7Tt2BXdY2MyUiz3gv2P503QZN2SAxMuqROAxGzE2/TRuA6vEYAgegIhD1AGDJkiFVTEHh4+oVMN9xwg1xxxRVSVlYm+lqHLno7LfquP3nyZCt4KC4utmoQ+LImXx3+RqD9AjpZ0nNmiKEOeZxm5j+4yoxSCLxBZx1vEhhgOhd6gwPvntLNU/9YMxxyt+nEuMfMvdBagKC1Czq1gk7gFJi05qCkrt70a3BJ6vFAInAdXiOAQHQEwh4gnOyw9HsXfL97oaX1tQOj7xc4tbQeyxFAoHUBnbRIg4OVZh6D6WbY4ZVmoqJg/Rf6ms6DbtMsoEOJ9eE/sIVAOxh6xzy0tkftyJhsmgsLTH+FKtPc4BsI1Hua5IAJMFLM+9p8QeoaAlpzpDVTHU2hyqej5eis20c9QOissBwXArEooMMhn99fJO8ePCKTTZPCpb1z/W7YvmUeaJoUepoJjXaUH2tG0MmMvElrAzaa2gMdGplnOhl6kwYfOvRR+xV4bwA606LOz7C3osqqbfCdEOlTk8dhM1pipBmFkROkE6M3X35HV0ADxANFDXL4aIP0z0uQ7pn+03dr6cyplwNHGuRQ8fF1suzrHK1oko07a2XXwXqrVik3O07GDUmSnt3adysqr2qSdTtqZfeheklOdMngPgkyZlCSmVjPe9VF16uz7L19Z6WzHDXHgUAXFNCnreWmY+GbBwulW0qiDDMzF24NGIWQaGoFRpkmhQRTXaA37DNzsuRl04nxcTOC4cumpqGfudlXmeDgGTMr4rajZTLc3NhHm+9S8KYXTa3EB6bZ4nzTbDE399j0yVrTMMXM3LjbBBpPm1kTLzfNGfmmdqLINC28fKDQCjKmmGmbfad49ubH7+gLVNd65O1Pq+TJ18pFb/C3fTlL5p7p3+dE13ljjTm/r1dIRbVZ59IsmT3Rf50NX9TKH14olYNHzEyfx2OHymqPubnHy7UXmLk2RrVtJs0d++rk9/8olS/2N5ipv00flga9skUWzkiTq2ZnSkoSQUKorhoChFBJkg8CMS5w2HQqfPPwETPPSJMcMfMePLVzv63EWWaSpR+NGCjZxycsuigvR0rMjIkrzaiFB7ftkhQTNNSaAMGaHyEjXa4wN/tkn6HGh8yQyaM6wZKpFfB4tE/RsV2c1z1b9leb4ZQmgHjA5JMcF29qGsywRvPZPiOvu0w1EyaRYk9gX2GDPPdWubz7WY0kmSf1unqP+R6OYzdkb2n3HK43gUG5rNxovsjLrKPBQuCI1bLKJnl0WZkUHW2Ua+amy/SxKWb2XJE1W811uKJCHnqxTAb1ThStUWgtafDx2CtlpgaiQa6bp/mkSnFZo7z0foU8/2alVbOxYHp683XXWl68d3IBAoSTG7EGAo4TmNkj23w7Y4b1rYvewqfHu2WB+R6E1oYTav8A329oTDB3+K+a4Y+jzCgFbVLQIY462dEwU8sws3uWpHsfBY/vZEGv7tZQybGZaX59FrQT4jX5Pa1ai/Umn6Mm6MiMT5MzTQ3EeGtdnvq85ylWfuvN+MElR6XA3Iy/fE6adfP9f8/7z9BZU+cx65SKBhJXzk4zT+9u+T/zOjBt2lUrm3bVy8XTUmXR2RnN18ZFU9PlYHGjLHm7UrbtrTMBQuu1CCs3VMuHG2rlqjnpsmhGRnMzRU9TA7XzQIMJFCrlnNNTzYRb3jE4gSXhdXsECBDao8W6CDhEYJIJDgKTfqHSLPMk396koxv0exi838XQ2vbadKA/wZLmM9UEBPpDin2BWlNb0C8vXi6ZaQI5U/3/xpoqW6HrTfV+r5w4ueK8dDljeLK8urrSto4u0KkwtJNrTqa7OTjwrphnttf+C1U1x+bL8C4P9lv7HWSkuq0aCHM5Nafs9DiZPCpJ/vFOpQlo6mX80ODXYPMG/NEmAcKsNjGxEgIIINC1BLqZm+518zJb7RuQnuK21tHgoLU0LD9R+vSIkw821EihaWbQgEB/tLPhmq210j3LbfoinOjsGiwvra3Q2ozeJp++PfyfbTVY0E6K2ply65665u8MCZYPy9ou4K/c9u1YEwEEEECgEwto15K05NafIfXGnBNkREMgi/Yt0FqG59+qkF/8rVjGD0k0fRnEjGiok+LyRrn+okxrJELgdr6vK00Ng3Zq1AAhPt6n+uD4StqsEG+qKUpMflaEYF/FNzv+boMAAUIbkFgFAQQQQKBjAiP6m5EzpibhrbXVZnhig1WDoLUCZ49PNrULJ78VWR0kTZNGggkOAufk0JIlmCGOLhPPaJ6mIqF5mG3HSt21tz75WenaPhw9AggggEAHBbRfwP8+XmKNgLjh4gzTRyBZGs1oiG17zVDXDyrl10+VyPev6WYFEC3tSgMADQ6030OQWbuPLTfdGHQkBZUHLSm2b3nr9Ufty4u1EUAAAQQQsAksX1lpjVbQpgQdxTCod4IMNbUJF56VJv96WbZU1pjZPd8sN0Nw9dk/eEpJdllDLUvNXAwaJASmo2YopW6fZfpOECEE6pzaawKEU3NjKwQQQACBNgjozXynqUHIy3HLWDNrYuDT/UATLOjoBp34yHx/WItJ+0PoiIlDZlhkhencGJj2mvkYdLREXrcTs3gGrsPr9gkQILTPi7URQAABBNohoN/nkWiaBorLmuSodiAMSLqs0sy5kJ5imgZ8ogedIfH4N443bzF2cKLVx2DNtlqrD4P3DZ2caa1Z1iPbbdVMeJfzu2MCBAgd82NrBBBAAIFWBPRLOicMTzJP/R75y/Iy2WKGIeoNXec90O9ueOjFUvO7Uc4anWwFEprV3sJ6+c+Hj8jDLx+1AgJv9ueekSr5PePl2TfK5eMtNVY+OkvjM2+UyUebamXW6Sm2IZDebfndfgE6KbbfjC0QQAABBNohsHBGujX/wSurqmT9jjrpmxtv9RcoKm2UWjPqYN6UVLnorBNTJOsoBx0CqfMkaBOFdjzU1C1D52bIkEdeLpP/+VuJ+eKoeGsdnW5ZA4xFZj++tRDtKCKrBhEgQAiCwiIEEEAAAX+B4fkJcsslmdaMif7vnHg1rF+ifPuyLNtMhjoC4cYFWTJpRLJsLKi1pmbW72sYMyhRpo5JkZEDEiUp4UT7wkQz8ZLmk28CCZ050TdNHZ1ifWfDqo01ssdM8dy7e5zZX7rMGJdimin81/Xdjr/bL0CA0H4ztkAAAQS6nEB+zwRTvZ/Q6nHr6AT9CZbiTF+ESSOTZaIJEnQWRU36tB/siV+/GGruZP9vgzy2xbH/D+2bKEPMj0f7Kpo8gs2L4Ls+f5+aAAHCqbmxFQIIIIDAKQi0FBS0Nyutb9CJkUjhE4A3fLbkjAACCCCAgGMFCBAce+ooOAIIIIAAAuETIEAIny05I4AAAggg4FgBAgTHnjoKjgACCCCAQPgECBDCZ0vOCCCAAAIIOFaAAMGxp46CI4AAAgggED4BhjmGz5acEQirgA4lrw2crD6sewxP5glm3FtcsMHw4dkduSKAQBsFCBDaCMVqCMSawPbKanlg+55YK1a7y3N2z25yWe/cdm/HBgggEF4BAoTw+pI7AmEVqKitC2v+kcj8cG19JHbDPhBAoJ0C9EFoJxirI4AAAggg0BUECBC6wlnuRMfoqWsQT415avZO5n6yYzNt9E1VNeLRb4bpSGpsOr7fjmTCtggggIBzBGhicM656tIlrdu6R+o/2ChNB46I+f5XceVmS/yYwZI09TRxxcfZbJoqa6T2rU+lcdte8ZRVivmieXH37yWJZ42ShMF9bOu3tKCpvEpqVqyVph0mn6pacfXIkvhxQyRpyqig+20pH5YjgAACThMgQHDaGeuC5a02N/r6l963AgP34L4i5ibt2V8kdY//U5oOFUvKouniSjhxKXuq66Tq0eXStH67uPrmirtPrniqa6Vx1Uap+WybeK6ZK4njBp9UUmseqv76ijRt2CEuE1y48rod2+9jW8VTWikpF0wWiaMS7qSQrIAAAo4UOPGp6sjiU+jOLtCwr0jqX1ltfaVr8o0LJGHkABMMxEnDwWKp+cd70vDaaqnrnydJZ45spqh59zNp+myrxM05U1LmnyXuNPP1sqapoe6jLVL79Aqpe3ONxA/tI+7U5OZtgv1R8/onVpARf9E0ST5/orhTkqThUInUPP+21C/7QOKH5UvCMBOwkBBAAIFOKMDjTyc8qZ3pkOrXfyFSVCIJcyZL4phBVnCgxxffK0eS508Vyc6Q+tWbjvUPOH7gTftNM4SpUUg8c5S401OsL5x3xcVJ4qQR4h7QS5r2HDY1Cq33/temhcaPN4trQG9JnmOCAw0mzFh93W/izPGmD4RInXlfOsE8BJ3peuFYEEAgdAIECKGzJKdQC5ibcFNxmek/kChxg3pbN2jfXcT1zhF3Xo40bdsjTabK35tcWelmQ48JGmq9i4791mXafyEtRVymT0JrqWFvoXgOHpG44f2sGgjfdROG54urTw9p2rzLdIAM2IfvivyNAAIIOFiAAMHBJ6/TF91lYoKkRPO0bkYQmP4AtqQjC+rMGPrqGmmqqG5+O2H0ABHzxF/35lqp/+KAtU5jcbnUvPqReAoOSNyEYeLOSG1eP9gfTaYpQWsH3KbGIDC5khPF1S1DPCZ4sUZUBK7AawQQQKATCLT+GNUJDpBDcLZA/Ih+pp/BKmn4ZKskjuwvLtMPwJtqP9ggnt0HrSGPfgGC6RvQ9NV5Urd0pVQ/sFhcphlCzNBIT3mlJCyaIcnnneHNosXf3oDEpU0UQZK1XAOUjg6fDJI3ixCIpkBnaTVz8/jb4cuIAKHDhGQQToH4gb3EPXqINH64XqpMbUKCGX3gMp0O6zfslIYPN5qqfjNCYdcBv3kRtNq/4bPtIlXVJqBIFm1y8CSZpgDzunHbPqnP7ymJowe2WmyPaY7Q5GrpU0aX61wM9Y2t5sObCDhJoLKmSe5+rFgOlzj7uh49KFG+d0U3J9HHZFkJEGLytFAor4B2Mky+bJbUmt+NH30ujas3mj4JCVYnxIS5Z4qnpFwadh08MSLB3LSrF79tOhhuMrUFZx+br0BrHczTfv3m3VJrahV0JIP7W4skvm8P725sv701FVYThu1ds0CbNtwu0wRiykJCoBMJ7DrY4PgAISOV6oNQXJIECKFQJI+wCsSbzohxX50rDWb0QNORMnGlJkmc6RsQZ/oBVD72iogJANxZaVYZGovKpPHTbeI+fbikzDZNCd4aAHMfTzx9qNVXoe6JV6Vh+75WAwR390wrvyYTgNiSdnY0nSJdGWmi/RFICCCAQGcUIEDojGe1Ex2TNdzQ3KTjemRLwhAzA6L+HE+NJlhoNDMsuvrlibubGblgUpP5hkMxP9oM0RwcHF9ff7m7Z1lP/o0Hin2W2v+MMzM1immeaNx9yOqs6JtX45FSa0ZHd37usf3YN2cJAggg4HgB6mEcfwo79wE0Fh6V6l8/LdWmWSCwQ2DtO+tECkskfrSZH0GbHUzSyYy0RqGp4KA0FpX645hmhgbTd0GbB9w5puPi8dR0tELqNu0+NiLi+LK43Cxxjx0iTeu2S53pt9CcTLeD2lWbREpKJW5YP6ZbbobhDwQQ6GwC1CB0tjPayY4n3sw3EGeaC6xOivHx5vsXBpr+BB5p+LzAmjrZrd/HcPbY5qPWG3vC+WdK/QvvSLVpfog3kyPF9TZzFpiJjxrW7TDbbBDX4HxJnDzy2DbaZ8HMyNj44QZr5EPy9DHWcg04EqecJjWbCqw+C02zzWRJplahYaPpHPn2WnENH2D2O655v/yBAAIIdDYBAoTOdkY72fFoG3/KFbOkOt1U93+w3rrBW9X9OkfBhOHWbIp+cxqYPgfJ508ST0Oj6dD4udQ9+ZqIdiQ8PirBPW6Y2eYs03/hWJOEzojoyjRzIpjmhMDvVUgcb2oQFs6Q+rc/E+23YOVj8nUP7CNJl88yszSabUgIIIBAJxUgQOikJ7YzHZaOZEgzN+R6M3WyNYGR+S4G7SOgP8E6CeosianmC5waTc1C4+5CM9uh6ZOQbDo2mi9bijOdD/22MSMRUhZOl6ZzTpe47ONBgw9e8rkTJMF0bmzYZfoi1JqmCd2vyUe/34GEAAIIdGYBAoTOfHY707GZ70FIMHMiiP60McXlZIr+nCzp10Vr4NBS0tES+kNCAAEEupIAnRS70tnmWBFAAAEEEGijAAFCG6FYDQEEEEAAga4kQIDQlc42x4oAAggggEAbBQgQ2gjFaggggAACCHQlAQKErnS2OVYEEEAAAQTaKECA0EYoVkMAAQQQQKArCRAgdKWzzbEigAACCCDQRgEChDZCsRoCCCCAAAJdSYAAoSudbY4VAQQQQACBNgoQILQRitUQQAABBBDoSgJhn2q5oaFBmswX6yQmJtpcPeab9CorK6W2tlaSk5MlLS3Nto53QU1NjVRVVUm8+Ua/9PR08309xDZeG34jgAACCCAQaoGwBgh79uyRF198UQ4dOiS33nqr5OXlNZdfA4cVr6+Qp595WsrLyyUjI0NmzpwpX/va12w3/40bN8pTTz0lmzZtkri4OBk/frzccMMN0qtX2+flb94xfyCAAAIIIIDASQXC8hiuNQNvvPGG3HnnnbJ48WL54IMPrFoE39K89NJL8vP/+rmMGDFCbrvtNpkyZYo8+uij8uc//1l0e2/atWuX/Nd//ZeUlpbK9ddfL1/5yldky5Yt8rOf/cwKLLzr8RsBBBBAAAEEQicQlhqEl19+Wf7whz/I/PnzrWaDxx9/3K/EerN/7rnnZNGiRXL77beLy3xTn9YepKSkyBNPPCFz5syRgQMHWoGCBhha2/DDH/5Q+vTpY+UzcuRIueWWW2TZsmVy5ZVX+uXNCwQQQAABBBDouEDIaxD06V/7COiN/6abbpKsrCyrlBoEeNO6detk+/btcu6551rBgS7XPgVnn3221NXVyebNm61VtX/CmjVrZMaMGc3Bgb4xePBgGT16tKxcudKvtsHaiP8hgAACCCCAQIcFQh4gaCBwzjnnyKxZs6wOhVpCDRp8mw32799v9UfQWgLflJubK3379pWCggJrcWFhoezYsUMGDRrku5okJSXJhAkTRPs4aP+FUKSysjIpLi72+wlFvuSBAAIIIICAEwXC0sRwshEG2sSgzQk6csE36Y0/NTVVDh48aC2urq62OiVq4BCYcnJyrNEPOrohMzMz8O12vdY8fve738mzzz7rt93dd99tBTp+C3mBAAIIIIBAFxAIS4BwMjetZfBtcvCu711WX1/vXWQ1PejIBVsy/RgDayZs67RxQUJCgpx33nly/pzz/bYYN26c32teIIAAAggg0FUEohIg6BO/zn2g/Q18kwYGutxbY6C1CdpBUav+A1NhUaHojV1rHTqaNACZOnWqXH7F5R3Niu1DIFC/fZ94avyvjRBkG/EsEkcNEIkLeStexI+DHSKAQNcUiEqAoP0MdG4E7YvQvXv3ZnltetDl+fn51jLt4KhNCdqh0TfpxEsFpp9C//79rfkTfN/jb+cL1Pz9XfFsLnD2gWSlS/zPbxB3eoqzj4PSI4BAlxWIyuONdjrUwGDVqlV+8yO8/fbbov0Oxo4da50QHQ2hIxh0JMPRo0ebT5IGBzoSYuLEiVYfheY3+AMBBBBAAAEEQiIQtRqEyy+/XHR+hOzsbGtmRB2toK8XLFggQ4cOtQ5OmxAuvvhia9KlBx54QBYuXGj1XXjk4UesAGPu3LkhQSATBBBAAAEEEPAXCHuAoLUAvXv39t+reaUTHOnoAZ0Y6eGHH7b6E+jwSJ07wbdT4pgxY6xJknSqZZ1bQb+LQZsg7vj+HUHzte2IBQgggAACCCDQboGwBwizZ8+W6dOnW8MafUunQxw1GLjkkkusuQy046L2N9AAIDDphEqTJ0+Ww4cPW4FEjx49bPkFbsNrBBBAAAEEEDh1Afvd+NTzCrqlDl3UOQ+CJX1Pv8DJ90ucgq2ny7QmQn9ICCCAAAIIIBB+gah0Ugz/YbEHBBBAAAEEEOiIAAFCR/TYFgEEEEAAgU4qQIDQSU8sh4UAAggggEBHBAgQOqLHtggggAACCHRSAQKETnpiOSwEEEAAAQQ6IkCA0BE9tkUAAccLmO99kxLz1R/VjZE9FN1vmfleurqmyO6XvSHQVoGwD3Nsa0FYDwEEEIikgN6cF+9qks+KRMprRBLMl8YOyha5fKBLBme4Wi1Kvbmp/21Hk+ypFMlKFLl5hFtSgnzpbLBMPCYyWLbPI+8c8MiRKpFEs92wbiKXmf32S2t9v8HyYxkC4RIgQAiXLPkigEDMChTXity7oUm2HBLJSBXpkyFSZQKGT/aK7CjxyC1jRCbktHyz/vvuJlm+Tcx3yYikmWlemoa3/VAfM4HFMvP9czon3EATGNSbmouVu81+j3rkP8abZekt77fte2FNBDouQIDQcUNyQAABBwlo1f5zBU2y+YDIeUNFrhjklm6mFkCr+pfva5JnPxf582aP/OYslyQGaYTdVeGRfxaI9DK1DTUNIrUmsGhrWm+Cj9d3iXQzc779xziXDDQ1FY1mvxpwLN4k8th2j/zn6QQIbfVkvfAKBLn8w7tDckcAAQSiKXCgyiMf7BPp30PkK4Pd0iNJJM7ck7WJ4KK+brlgiEvGmveC9UloMtHFswUeqTI1EJcMcklyOx6xNDB5/7DZtlpkXn+XDM10SbzZb5LZ7/x8t/QxtQlbCs1Pqa5JQiD6AgQI0T8HlAABBCIosN58c3yluUlrEKA1B9onoNh0Uiw3NQF6s/76MJd8c5hbshLshVq61yMf7RGZOUBkRs/2PelrDcXWEhOIJIucleufd4bZ15Q8UxthAo9Npf7v8QqBaAm0I/6NVhHZLwIIIBA6gd2micB8DYwMM0/wr5jOgh+Yp/oD5aYWwTwuDTHNBhflu2RUtv3mf7DaNC3s9khelshVpllC82hPqjV9DYq0U6Pps5CTZN94kHaMdHlkn6nhMH+0J2vWRSAsAtQghIWVTBFAIFYFjpqndL25f2gCg8c+90iFqT0YaG766aY2YbWpHfjfNR5Ze8S/ml9fLd7lkcOm9mHBQJe5wbf/6CrqPdJggoQU81gW7PavtRmaKtvRp+HYFvwfgfAIUIMQHldyRQCBGBXQJ/kG07nwMzOCYcFQ89PPLWnmk7DBRAE6dFFHJzxiOimOMp01sCL4AAAdFUlEQVQUvUMXPzEBwwcmeJgyQOTcXsFu7yc/2EaTvwYaLdU8uI9nq+uREIgFAWoQYuEsUAYEEIiYgM53oGlYjsiX+h8LDvS1dhi82jQdDOxumgJMk4O3s2CVCSZeNLUHiaafwCLTuTDhFD81MxJcVjOGjnwIFgPovAyako+X79gr/o9A9ASoQYiePXtGAIEoCOSaToL6sN477VinRN8iaCfFoaYfwhdmNEGRaYrQ9J5piti4/9ioh81mhIH+aNIah3Kzjg5T1OGR3U2/gpl5JghooYJBh0wmmk/cCt0mSISw2/RP0A6TPUz5SAjEggABQiycBcqAAAIRExhpOiD+M94jhWb2RL1R+97Q9b5dYZ7ktRnA27xQcrzPwp4jZp6CYv9iNpnmCt3mmQ0iedkemZLrktQWagC05iE/04xkMMHHF+UeGe3TEVLz2FHmEbdZ52SzOPqXgFcIhE+AACF8tuSMAAIxKHC6mSGxR6ZHNh0W2WhmLxzX7cQj/6pCj9U3IdPULgw3oxw0zenjknzzOjBpDcLjW47NifD10SZP8+SffLz5Qd9bbfLKMyMWhhyftlkDhAvMCInNhzzy/E6PjDATImmzhiadQGmDKY9OvuRbnmPv8n8EoiNAgBAdd/aKAAJREtAn/MsGu+RP6z1y32cemTvAY30HQkGFyFtmngOdI+FKc8PXpghN3c2IhelB5jzQeQ2e2+6RWnPjn2be146O3vSW+Z6Fh9d5TCAics9kl6Qfn1NhrAlGBvUwwYBpsvh/iU0yqYfL+qKo1/cc2+9lZg4GnROBhEAsCPhc0rFQHMqAAAIIhF9ARyKUm86Cy8ysiDrFsdvtsdr/k00wcPVYM7Nh3xO1Cq2VJs0MTdQvbgpMPU3NQYrJq5sJMrydInWdTHPzv/U0l/zZNHGs2mOGWpp5FbQ5I8F8El81xiXz2rjfwP3xGoFwCBAghEOVPBFAIKYF9Ka8qJ/Lqhn43DQz6CyKOreBtv/3NDf1toQH2unwB+PdVoDgW3ugB67NBL+cemzEQ9LxZgcvSH/zjY13jndZzRv7zbc5atAwyHxZVJ8Ul3iHOnrX5TcC0RQgQIimPvtGAIGoCuj3MOjIg1NN3smNgm3vbaII9p4GF/ptkRPMUEsSArEqEBDbxmoxKRcCCCCAAAIIRFKAACGS2uwLAQQQQAABhwgQIDjkRFFMBBBAAAEEIilAgBBJbfaFAAIIIICAQwQIEBxyoigmAggggAACkRQgQIikNvtCAAEEEEDAIQIECA45URQTAQQQQACBSAoQIERSm30hgAACCCDgEAECBIecKIqJAAIIIIBAJAUIECKpzb4QQAABBBBwiAABgkNOFMVEAAEEEEAgkgIECJHUZl8IIIAAAgg4RIAAwSEnimIigAACCCAQSQEChEhqsy8EEEAAAQQcIkCA4JATRTERQAABBBCIpAABQiS12RcCCCCAAAIOESBAcMiJopgIIIAAAghEUoAAIZLa7AsBBBBAAAGHCMQ7pJwUEwEEEDhlgfUlHimuO+XNY2bDSd1dksandsycj85eEC61zn6GOT4EEJBX93nk/Z3Oh/jxdJEJOS7nHwhH4AgBmhgccZooJAIIIIAAApEVIECIrDd7QwABBBBAwBECBAiOOE0UEgEEEEAAgcgKECBE1pu9IYAAAggg4AgBAgRHnCYKiQACCCCAQGQFCBAi683eEEAAAQQQcIQAAYIjThOFRAABBBBAILICBAiR9WZvCCCAAAIIOEKAAMERp4lCIoAAAgggEFkBAoTIerM3BBBAAAEEHCFAgOCI00QhEUAAAQQQiKwAAUJkvdkbAggggAACjhCI2pc1NTU1if4ES/Hx9mLV19dLXV2duN1uSU5OFpeLLywJZscyBBBAAAEEQiFgvxOHItc25PHJJ5/ICy+8YFszOztbvv71r0uPHj2a3ysoKJBnnnlGNmzYIElJSTJ+/Hi5+uqrpXv37s3r8AcCCCCAAAIIhE4gagHCmjVrZO3atXL22Wf71QZkZWVJYmJi8xEePHhQfvKTn1jrLFiwQLQm4cUXX5SdO3fK3XffLSkpKc3r8gcCCCCAAAIIhEYgagFCUVGRzJgxQ+644w7bkXibDzwejyxevFiKi4vlgQcekAEDBljrjh49Wr7zne/I8uXL5ctf/rJtexYggAACCCCAQMcEotJJUfseHD58WHr27GnVDGhA4PvjPaTq6mpZvXq1nHPOOc3Bgb43cuRIGTFihLz33nuiQQQJAQQQQAABBEIrEJUahNraWikrK5PU1FT58MMPRZsb9EavN35tcvA2MRQeLpTt27fLJZdc4nfU2klx4sSJ8tprr0lFRYVkZGT4vX8qL7QDZE1Njd+muh8SAggggAACXVEgagGC3ti1k2J6errV2bC0tFSeeOIJueKKK+Rf/uVfrCChqrrKqlnQmobApJ0YNdDQm3pHAwTN47777pPnn3/ebzfa90GbQUgIIIAAAgh0NYGoBQhaezB06FC57bbbrBu83uyXLFkiv/vd72TSpEnWjVlrFXRYY7Bhj9ok0djY2OJQyfacSM1/woQJVlOG73ZDhgzxfcnfCCCAAAIIdBmBqAQIubm51hO7jkDwVuPrTXrevHlWp8SNGzdaAYK+r0HA0aNHbSdEOy5qU4S3OcK2QjsW6L7PP/98uf7669uxFasigAACCCDQeQWi0kmxoaHB6jsQFxfnJ6u1ChnpGdZ7+kZmZqZVu7Bjxw6/9bSTo86N0KdPH2sdvzd5gQACCCCAAAIdFohKgKBzGNx6663yxhtv+B3A3r17Zc/ePZKfn28t174F06ZNs+ZLqKqqal73wIED1qRJ2lExMMhoXok/EEAAAQQQQOCUBaISIPTv399q83/44YdlxYoVsm/fPvn000+t/gfaIVFHMmjS5gOdHGnr1q3y+9//3qo10ODiwQcflISEBJkzZ84pHzgbIoAAAggggEDLAlHpg6B9C/71X/9V/vCHP8gvf/lLa6SCdkjUwOGuu+6ymg68RdbOg//xH/9hjXDQYY1aY9CtWze5/fbbrfW96/EbAQQQQAABBEInEJUAQYuv36Pwgx/8QK688kopLy+3+hrk5eUFHbKotQhTp06V/fv3W7UKup5+Z4N3xsXQcZATAggggAACCKhA1AIE3bnWBuhQx7YknffA9wuc2rIN6yCAAAIIIIDAqQlEpQ/CqRWVrRBAAAEEEEAgUgIECJGSZj8IIIAAAgg4SIAAwUEni6IigAACCCAQKQEChEhJsx8EEEAAAQQcJECA4KCTRVERQAABBBCIlAABQqSk2Q8CCCCAAAIOEiBAcNDJoqgIIIAAAghESoAAIVLS7AcBBBBAAAEHCRAgOOhkUVQEEEAAAQQiJUCAEClp9oMAAggggICDBAgQHHSyKCoCCCCAAAKREiBAiJQ0+0EAAQQQQMBBAgQIDjpZFBUBBBBAAIFICRAgREqa/SCAAAIIIOAgAQIEB50siooAAggggECkBAgQIiXNfhBAAAEEEHCQAAGCg04WRUUAAQQQQCBSAgQIkZJmPwgggAACCDhIgADBQSeLoiKAAAIIIBApAQKESEmzHwQQQAABBBwkQIDgoJNFURFAAAEEEIiUAAFCpKTZDwIIIIAAAg4SIEBw0MmiqAgggAACCERKgAAhUtLsBwEEEEAAAQcJECA46GRRVAQQQAABBCIlQIAQKWn2gwACCCCAgIMECBAcdLIoKgIIIIAAApESIECIlDT7QQABBBBAwEECBAgOOlkUFQEEEEAAgUgJECBESpr9IIAAAggg4CABAgQHnSyKigACCCCAQKQECBAiJc1+EEAAAQQQcJAAAYKDThZFRQABBBBAIFICBAiRkmY/CCCAAAIIOEiAAMFBJ4uiIoAAAgggECkBAoRISbMfBBBAAAEEHCRAgOCgk0VREUAAAQQQiJQAAUKkpNkPAggggAACDhIgQHDQyaKoCCCAAAIIREqAACFS0uwHAQQQQAABBwkQIDjoZFFUBBBAAAEEIiVAgBApafaDAAIIIICAgwQIEBx0sigqAggggAACkRIgQIiUNPtBAAEEEEDAQQIECA46WRQVAQQQQACBSAkQIERKmv0ggAACCCDgIAECBAedLIqKAAIIIIBApAQIECIlzX4QQAABBBBwkAABgoNOFkVFAAEEEEAgUgIECJGSZj8IIIAAAgg4SIAAwUEni6IigAACCCAQKQEChEhJsx8EEEAAAQQcJECA4KCTRVERQAABBBCIlAABQqSk2Q8CCCCAAAIOEoh3SlmbmppEf1wul8TFxTml2JQTAQQQQAABRwo4IkAoKiqSZ599VtavXy+pqaly+umny6JFiyQzM9OR6BQaAQQQQACBWBeI+QChpKREfvzjH0thYaFcMPcCqauvk+eff162bt0qd911lyQlJcW6MeVDAAEEEEDAcQIxHyAsXrxYdu7cKffff78MHz7cAp4wYYL88Ic/lFdffVUWLFjgOHQKjAACCCCAQKwLxHQnxerqalm5cqXMmjXLCg60/4H+aBPDkCFD5L333ot1X8qHAAIIIICAIwViugZB+x5s2bJFLrzwQisw8AqnpKTIpEmT5M0335SKigpJT0/3vnXKv9955x0pKys75e1PtqG7aKhZ5fSTrRbz7y9ftlze3LA/rOWcs6ta+oV1D+HPvLamRp7605+kxu0J286OJCaLTJwetvwjlfGa1avl/hd2hXV3m3vPFkk5Laz7iETmWqP6TtW+sO2qtsEtJSVzTP7O7t918OBBU+v8ZNicQpXxwoULZdCgQaHKLuT5xHSAoDd/j8cjvXr18jtwrUXIy8uTGvMhrLUMHQkQNC/N/6WXXpKlS5f67ee0006THj16+C071Rdu14eSk/LBqW4eM9tV7j0s1btKwlqevSnZkuyO6UvzpMffVO+RLe8fOel6HVrBjOZJNM1vTk+e+np5d094AwRJ2yDunHynU8mm/Ztlc2N9GI/DJVlZB8OYf4SyPtog727ZEaGdnfpuzj77bAKEU+XTYY06pDExMdGWhdvtlsbGRuvH9mY7FuTm5soNN9wgAwcOtG2lIyX69+9vW86CUAq4QpkZeSGAAAKOEUhPT4vpssb0Y5o2JWgQEKzq/+jRo5KQkBCSUQzTpk0T/SEhgAACCCCAwDGBmO6kmJGRIWlpafLFF1/4nS9tdigoKLCaGXQdEgIIIIAAAgiEViCmAwSdCGny5Mmydu1aqauraz7yw4cPy+effy5nnHGGxMfHdCVIc5n5AwEEEEAAAScJxHSAoJMgfelLX5J169bJH//4R9FRDQcOHJBHHnnE6qA4e7bpmUxCAAEEEEAAgZALuMyTefjGYYWguNpRUWdOfOyxx6zcdNSBdlq89dZb5dxzz/Ub/hiC3ZEFAggggAACCBiBmA8QvGdp7969Vr+D5ORk6dOnj/Tu3ZvgwIvDbwQQQAABBEIs4JgAIcTHTXYIIIAAAggg0IpATPdBaKXcvIUAAggggAACYRQgQAgjLlkjgAACCCDgVAECBKeeOcqNAAIIIIBAGAUIEMKIS9YIIIAAAgg4VYAAwalnjnIjgAACCCAQRgEChDDikjUCCCCAAAJOFSBAcOqZo9wIIIAAAgiEUYAAIYy4ZI0AAggggIBTBQgQnHrmKDcCCCCAAAJhFCBACCMuWSOAAAIIIOBUAQIEp545yo0AAggggEAYBQgQwohL1ggggAACCDhVIN6pBafcwQWqqqpkz5494vG0/i3eQ4YMkYSEhOCZdJGlBQUFUlNT0+rRpqWlSX5+fpf+5tD6+nrZuXOn6Fevt5b69+8vqampra0Sk+/pcZ3s30uwgsfFxdkWHzlyRAoLC23LAxcMHz5c3G7nPZ9VV1e32yo+Pl4SExP9CNR7x44d0tDQ4Lc88EXPnj0lJycncDGvIyRAgBAh6EjtZt26dfLd735XBgwYEPQDqLGxUfbv3y+///3vZezYsZEqVkj3U1paetIPFu8O9UM8KyvLdoPXD6ZHH31UPvroI8nMzLS9r9uXl5fLwIED5Te/+Y0kJSV5s3TM7w8//FDWrl3b5vLqh/G8efNEgyLfpDe82267TTIyMmwf9N71NID43ve+J1deeaV3kWN+v/baa/LCCy+0q7w9evSQW265xfraed8Nly9fLg899JD1lfQul8v3Levvuro60SD+r3/9q6i3k5IG0/fff79s2rSpXcXWa+orX/mK3zYaaPzqV7+yPovS09P93vO+OHTokMyZM0fuuOMOCRaMedfjd/gECBDCZxuVnPVpqG/fvtY/vsAPei1QcXGx/Pu//3tUyhaKneoH7H333dfmG9/IkSPlzjvvtIKAwP1rkDB37ly59tprgwYI+mH/9ttvB27mmNcaDOrTf1tTbW2t6NNeYNKnPa1t+uEPfyiDBg0KfFt0u7vuukt0f05Mu3fvts7/pZdeahVfXz/xxBPNQdGLL75o1Z4sWrTIWk8D7L///e9Bj1cNNPBWj8CnZs1869at8otf/MKJTNY1cNFFF8lZZ53lV/5ly5ZJRUWFXHbZZUEfSvTzKFjS60b/7WkQEJj0mtNAS/+9k6InYP80iF5Z2HOIBLTqUqvlWorMgz3ZhGjXYc9Gb1TXX3+99WHUlp3pk4c++baUkpOTpXv37kEDBK1ZcHKaPn266E8okl4z3bp1s6wC89MPeifWsPgeR+/eveW8886zFm3evFmWLFkiM2fOtI5ZX+vTrL6vDlo1vvTlpb6b+/2t//60hiFYE54aOjXpv6Vx48b5FV8fSN5//30rcDz33HOD/jvy2yDghf4b039/gUkDBP380gcaUvQECBCiZx+2PeuTsbavB6tBOHr0aNAnn7AVJsQZ6we0tnWHKukHv1aPBwua2tKWHKpyOCEffbIO1m6uAcLJ2pKdcHyhKqM+Tes1FSxA2Lt370n7coSqHJHIp7a2zmommDx5ctB/Qycrg9bGqFVg0gBBm/hI0RUgQIiuf1j2rk84P/rRj4L+g9UqUO3ESDomoE0Ia9asCcqhH/SDBw8O+l5XW6j9Pu69996gAYJafPHFF6JPkJ0hNTW13sH3ZMeo/YBuv/32oKtpk09lZWXQ95y4sKio0Po8Cdb01Jbjee6550SbcIIlDdC1CZAUPQEChOjZW3vWKrqysrJ29wzWjfWpNzs723YEw4YNs9rpg9UglJSUWJ3JbBt10QULFy6U6667LujR//Of/5Q333wz6HtOWahP9m3pG6DXUrA2c+9xalXwT3/606B9ELSdWAPSzpIqKsolJSXllJtNpkyZIj/5yU+C1iBs27ZN/vu//9uxVNq58G9/+1tz1b+O2tBauKefftp2vNpEM3Xq1KAPKl6Ab3zjG0H7IOj72gfhZKOMvPnwOzwCBAjhcW1zrlrl/+Mf/1gOHjzY5m28Kw4dOlR+/vOf2z7ItBpY2zqD9UHQqrtg1enePLvab+2DoFbBTIL5Oc1n6dKlbeqhP378eKtXfktBgjcYDTbkTJsYWtrOaV5aXu2lr8OAT7VfhbbVq1OwJgYdUePkpAGn7zFobcmIESMkNze3uXZJP2N0ZIgOedUAobWk/YOCXVOah25PgNCaXvjfI0AIv3Gre8jMzJKvfe1rp1SDoB9gwT6EtFZCI/tg/7i0BqEtT5StFroTvantnEVFRUEDBK3ZcXrSHufBapICj0trCIKNYPBdTzuM+d4cvO91pj4IGqi/++67or31vUPrNDjSJ2etKfEuE/sIRi+HtZ5eU8H+baqh/vt0atIbuncoqx7HgQMHrFFT3/zmN5sPST9fdHlbkjZdqVVg0gBBzUnRFSBAiK6/+VCOkzPPPDNkpdCgQIdSffvb3w5609N/eNpRqqsnddD2YG3/fO+994Jy6Hj1gQMHBn3PKQvz8vJEfzqS9MaogaU2MbQURGi/Fqf3QdCqcp3zQkcgzJ49u5msX79+8swzz1j/prTGqbXjVCudf+Jb3/pW8/a+f+jNU/u2dIaknzXa98Q7+qM9x6TBhf77e+SRR+Spp54KuqnWrrZmHXQjFoZUgAAhpJzRz0xrDvTD7d/+7d+CFkY/6HWMdldP+gGlTyi33nqrTJs2LSjHK6+8IqtXrw76Xlda6J0w6gc/+EHQGgS9KWpTl9PT5xs/l169esnVX7na7zjnz59vBYpaU+LSqgOtPWihH6PWOl111VVyzTXXBOXQPgi//e1vg77ntIVa26LHeyqjivSa0SBdJ0HSWSWDpYcffjjYYpZFUIAAIYLY4d6V/oPT2gPtpNjSP1qtbg42VC3cZYu1/LVqU3tJa9t7S1YdffKOtWM+1fJs377damPWtuZgfQ30xtmWZoxT3X+ktjv3vHNl2vRptr4H2sQwZsyY5mLoKKFgSWsHdMjeBRdc0OI1pbVSwfq7BMsv1pepg85hoP0P2pt0eKPWIEyYMKHFeRC0Jod5ENorG9r1CRBC6xnV3LTqUp9QLr/88qiWI1w71wlr3nnnnVPKftasWX5PKuvXr7cCJZ0gh9SygAadGzZssG54wYKDlrd01jt6s/KOu9en29aS/jvzBKlC0KY7bWrpKkNjtXmhT58+os0u7U2rVq2ytnXyxFHtPWYnrk+A4MSz1kKZ33rrLavaTictCUxanW4+60Xb9fQD0Im1CFruYB2aAo812OvDhw83Bwh6M9BAQ4ejBXa60xuiWqmPNtfob6c98enx6bAzDRbbm7Tjqw498wZOmod+n4NOsxyY9Hxor3Zti9af5g58gSs64LUOZ9WJoNqStMZEm+oCkw6L1ZFFw4YOC3yrucOdXr9a0+C0a0oPSL+3REcteJN25tQ+KfqdJr5Jm+/0utF/SzoSQY9Va1X0S880abOE9vvR72gI/BzyNv3pNhqwOfma8jVx6t8ECE49cwHl1g/oTz/91Op9HexLYF5//XVr/LJ+oOvc6C3Njx6QbUy91GleA6d6PZUC6iyT2sta5z8I/KDWp8P/+Z//Ea1W1w8ynV/eiU/O3ht8e330adC3uUAnkdJAatKkSbas9Hp78MEHrYl/9GZw2mmn2dZxwgK9yemU1C3NhxF4DHr9PP74436LNZjUWinreklK9HtPX+jcAa+/9rrU1tXKxIkTbYGpbYMYXKCB85YtW5pLprUHmnyXed/0fr5ok6emGTNmeN+SzZs2W0OLdaRIYNq3b5/1XRXqqRNK3XjjjQQJgUgRfO0yTwEtdLeJYCnYVUgE9OlEP+CDjd/XNnetEtQPQw0gunL7ut7MtP1Ux7oHBgg6i97uXbuk5GiJ9fSjPdid+BXGIbmgTCZHj5aatuK6oO3M9XX1svHzjZahVhXrTcGJT3waFGow6L3hncxOrx+tbdAnYt/j1SYG/XcVbHijjpDQdnetodHgzalV63rsp5J8/51pDYx6BOv7o7UrWvugDzwaqOq30joxQD8Vo1jchgAhFs8KZUIAAQQQQCDKAu4o75/dI4AAAggggEAMChAgxOBJoUgIIIAAAghEW4AAIdpngP0jgAACCCAQgwIECDF4UigSAggggAAC0RYgQIj2GWD/CCCAAAIIxKAAAUIMnhSKhAACCCCAQLQFCBCifQbYPwIIIIAAAjEoQIAQgyeFIiGAAAIIIBBtAQKEaJ8B9o8AAggggEAMChAgxOBJoUgIIIAAAghEW4AAIdpngP0jgAACCCAQgwIECDF4UigSAggggAAC0RYgQIj2GWD/CCCAAAIIxKAAAUIMnhSKhAACCCCAQLQFCBCifQbYPwIIIIAAAjEoQIAQgyeFIiGAAAIIIBBtAQKEaJ8B9o8AAggggEAMChAgxOBJoUgIIIAAAghEW4AAIdpngP0jgAACCCAQgwIECDF4UigSAggggAAC0RYgQIj2GWD/CCCAAAIIxKAAAUIMnhSKhAACCCCAQLQFCBCifQbYPwIIIIAAAjEoQIAQgyeFIiGAAAIIIBBtgf8PEDKwfR8jqjIAAAAASUVORK5CYII=" parent="1" vertex="1">
          <mxGeometry x="746" y="337" width="520" height="520" as="geometry" />
        </mxCell>
        <mxCell id="alSOaGd_RzKJ9WHMyQNm-4" value="" style="shape=image;verticalLabelPosition=bottom;labelBackgroundColor=#ffffff;verticalAlign=top;aspect=fixed;imageAspect=0;image=data:image/png,iVBORw0KGgoAAAANSUhEUgAAAggAAAIICAYAAAAL/BZjAAAKBGlDQ1BJQ0MgUHJvZmlsZQAASImVlndUFFkaxV9V50TohiY10MQm59CA5JwkSBaFpslJaKKICRkcgRFFRAQUQYao4IgEMSGiGBgEFDAPyCCgrGJAVNTeQiaeObt79tZ59f3O96ruee/VH3UBIDlxkpLiYSEAEhJTed6ONsyAwCAmbgqQkYsA2IDK4aYkWXt6ugFEv9e/6/0YgFbqHc0Vr3/O/1cJh0ekcAGAPBHeGJ7CTUD4FMJ63CReKsK/IqyQkZqEMIxHWISHLBBhxgpHrbLOCoetst23Z3y8bREOAABP5nB4UQAQw5E+M50bhfgQcxHWSQyPSUT4DMIW3GgOMk98h7BGQsImhElMhFXC/uIT9TfPsD88OZyoP3h1L9+EdrO1+z+P4n8rIT7td/+VEydnRduuRSodGYwNb6LlvK6l5zIZITE5POAGbIEdUxqA1IjM1JUXbDclbebFREWnMq2RrxTBdE7kamkw9XR0TQBY+eartm/p35wh+s0/e7t2A2DeyOfzz/3Zc50GoO0Vsu/Hf/ZYsQAIRANw/SA3jZf+2zGs3DCACASBCJAAMkABqABNoAeMgBmwAvbABXgAHxAINgIuiAYJgAcyQDbYCfJAAdgHDoJyUAWOgwZwEpwGneA8uAyugVtgCIyCh2ACTIMXYAG8B8sQBOEgCkSDJCBZSAlSh/QgNmQB2UNukDcUCIVCUVAilAZlQ7ugAqgYKoeqoUboJ+gsdBm6AQ1D96FJaA56A32CUTAZFoGlYWVYG2bD1rAr7ANvgKPgZDgLzoX3wmVwDXwC7oAvw7fgUXgCfgEvogCKhKKj5FCaKDbKFuWBCkJFoniobah8VCmqBtWC6kb1o+6gJlDzqI9oLJqGZqI10WZoJ7QvmotORm9DF6LL0Q3oDnQf+g56Er2A/oqhYBgYdYwpxhkTgInCZGDyMKWYOkw75ipmFDONeY/FYulYFtYY64QNxMZit2ALsUewrdge7DB2CruIw+EkcOo4c5wHjoNLxeXhDuNO4C7hRnDTuA94El4Wr4d3wAfhE/E5+FJ8E/4ifgQ/g18mCBGUCKYED0I4YTOhiFBL6CbcJkwTlonCRBbRnOhDjCXuJJYRW4hXiY+Ib0kkkjzJhORFiiHtIJWRTpGukyZJH8lUshrZlhxMTiPvJdeTe8j3yW8pFIoyxYoSREml7KU0Uq5QnlA+CNAEtAScBcIFtgtUCHQIjAi8FCQIKglaC24UzBIsFWwTvC04L0QQUhayFeIIbROqEDorNC60KEwT1hX2EE4QLhRuEr4hPEvFUZWp9tRwai71OPUKdYqGoinQbGlc2i5aLe0qbVoEK8IScRaJFSkQOSkyKLIgShU1EPUTzRStEL0gOkFH0ZXpzvR4ehH9NH2M/klMWsxaLEJsj1iL2IjYkriUuJV4hHi+eKv4qPgnCaaEvUScxH6JTonHkmhJNUkvyQzJo5JXJeelRKTMpLhS+VKnpR4wYIYaw5uxhXGcMcBYlJaRdpROkj4sfUV6XoYuYyUTK1Mic1FmTpYmayEbI1sie0n2OVOUac2MZ5Yx+5gLcgw5J7k0uWq5QblleZa8r3yOfKv8YwWiAlshUqFEoVdhQVFW0V0xW7FZ8YESQYmtFK10SKlfaUmZpeyvvFu5U3mWJc5yZmWxmlmPVCgqlirJKjUqd1WxqmzVONUjqkNqsJqhWrRahdptdVjdSD1G/Yj6sAZGw0QjUaNGY1yTrGmtma7ZrDmpRddy08rR6tR6qa2oHaS9X7tf+6uOoU68Tq3OQ12qrotujm637hs9NT2uXoXeXX2KvoP+dv0u/dcG6gYRBkcN7hnSDN0Ndxv2Gn4xMjbiGbUYzRkrGocaVxqPs0XYnuxC9nUTjImNyXaT8yYfTY1MU01Pm74y0zSLM2sym13DWhOxpnbNlLm8Oce82nzCgmkRanHMYsJSzpJjWWP51ErBKtyqzmrGWtU61vqE9UsbHRueTbvNkq2p7VbbHjuUnaNdvt2gPdXe177c/omDvEOUQ7PDgqOh4xbHHieMk6vTfqdxZ2lnrnOj84KLsctWlz5Xsus613LXp25qbjy3bnfY3cX9gPujtUprE9d2egAPZ48DHo89WZ7Jnue8sF6eXhVez7x1vbO9+9fR1oWsa1r33sfGp8jnoa+Kb5pvr5+gX7Bfo9+Sv51/sf9EgHbA1oBbgZKBMYFdQbggv6C6oMX19usPrp8ONgzOCx7bwNqQueHGRsmN8RsvhAiGcELaQjGh/qFNoZ85HpwazmKYc1hl2ALXlnuI+yLcKrwkfC7CPKI4YibSPLI4cjbKPOpA1Fy0ZXRp9HyMbUx5zOtYp9iq2KU4j7j6OH68f3xrAj4hNOFsIjUxLrFvk8ymzE3DSepJeUkTyabJB5MXeK68uhQoZUNKV6oI8nMdSFNJ+y5tMt0ivSL9Q4ZfRlumcGZi5sBmtc17Ns9kOWT9uAW9hbulN1sue2f25FbrrdXboG1h23q3K2zP3T69w3FHw07izridP+fo5BTnvNvlv6s7Vzp3R+7Ud47fNecJ5PHyxneb7a76Hv19zPeDe/T3HN7zNT88/2aBTkFpwedCbuHNH3R/KPuBvzdy72CRUdHRfdh9ifvG9lvubygWLs4qnjrgfqCjhFmSX/LuYMjBG6UGpVWHiIfSDk2UuZV1HVY8vO/w5/Lo8tEKm4rWSkblnsqlI+FHRo5aHW2pkq4qqPp0LObYvWrH6o4a5ZrS49jj6cef1frV9v/I/rGxTrKuoO5LfWL9RIN3Q1+jcWNjE6OpqBluTmueOxF8Yuik3cmuFs2W6lZ6a8EpcCrt1POfQn8aO+16ureN3dZyRulMZTutPb8D6tjcsdAZ3TnRFdg1fNblbG+3WXf7Oa1z9eflzldcEL1QdJF4Mfci/1LWpcWepJ75y1GXp3pDeh9eCbhyt8+rb/Cq69Xr1xyuXem37r903fz6+RumN87eZN/svGV0q2PAcKD9Z8Of2weNBjtuG9/uGjIZ6h5eM3xxxHLk8h27O9fuOt+9Nbp2dHjMd+zeePD4xL3we7P34++/fpD+YPnhjkeYR/mPhR6XPmE8qflF9ZfWCaOJC5N2kwNP1z19OMWdevFryq+fp3OfUZ6VzsjONM7qzZ6fc5gber7++fSLpBfL83n/Ev5X5UuVl2deWb0aWAhYmH7Ne81/U/hW4m39O4N3vYuei0/eJ7xfXsr/IPGh4SP7Y/8n/08zyxmfcZ/Lvqh+6f7q+vURP4HPT+LwON+iAAoZcGQkAG/qAaAEAkAbQvLD+tVM9lumgf6Sbv4Dr+a2bzICoAUp3ivppgeAU8hQtkK8dwCwEid9rACsr//H+E0pkfp6q15kHhJNPvD5b5GUhOsG4AuPz18+wud/qUUWex+AnuTVLLgiLJKQj63kTDAi2/aPXPZvWZW9CNhD8eEAAABsZVhJZk1NACoAAAAIAAQBGgAFAAAAAQAAAD4BGwAFAAAAAQAAAEYBKAADAAAAAQACAACHaQAEAAAAAQAAAE4AAAAAAAAAkAAAAAEAAACQAAAAAQACoAIABAAAAAEAAAIIoAMABAAAAAEAAAIIAAAAALeyWNwAAAAJcEhZcwAAFiUAABYlAUlSJPAAAEAASURBVHgB7L0HkFzXda77n87dkwNyzhkgAAYw5yBKlERbKlnys33tuteW7Odb5fBeuVzys59sl2/ZT7ZLkq10bUuWlS1RTCJpZgokARKRyHEwwCRMnumc31pnZoABenowocPp7n9XDabnhL33+fZBn/+svdbaRiwWS4OFBEiABEiABEiABMYRsI37zI8kQAIkQAIkQAIkYBKgQOCNQAIkQAIkQAIkkEGAAiEDCTeQAAmQAAmQAAlQIPAeIAESIAESIAESyCBAgZCBhBtIgARIgARIgAQoEHgPkAAJkAAJkAAJZBCgQMhAwg0kQAIkQAIkQAIUCLwHSIAESIAESIAEMghQIGQg4QYSIAESIAESIAEKBN4DJEACJEACJEACGQQoEDKQcAMJkAAJkAAJkAAFAu8BEiABEiABEiCBDAIUCBlIuIEESIAESIAESIACgfcACZAACZAACZBABgEKhAwk3EACJEACJEACJECBwHuABEiABEiABEgggwAFQgYSbiABEiABEiABEqBA4D1AAiRAAiRAAiSQQYACIQMJN5AACZAACZAACVAg8B4gARIgARIgARLIIECBkIGEG0iABEiABEiABCgQeA+QAAmQAAmQAAlkEKBAyEDCDSRAAiRAAiRAAhQIvAdIgARIgARIgAQyCFAgZCDhBhIgARIgARIgAQoE3gMkQAIkQAIkQAIZBCgQMpBwAwmQAAmQAAmQAAUC7wESIAESIAESIIEMAhQIGUi4gQRIgARIgARIgAKB9wAJkAAJkAAJkEAGAQqEDCTcQAIkQAIkQAIkQIHAe4AESIAESIAESCCDAAVCBhJuIAESIAESIAESoEDgPUACJEACJEACJJBBgAIhAwk3kAAJkAAJkAAJUCDwHiABEiABEiABEsggQIGQgYQbSIAESIAESIAEKBB4D5AACZAACZAACWQQoEDIQMINJEACJEACJEACFAi8B0iABEiABEiABDIIUCBkIOEGEiABEiABEiABCgTeAyRAAiRAAiRAAhkEKBAykHADCZAACZAACZAABQLvARIgARIgARIggQwCFAgZSLiBBEiABEiABEiAAoH3AAmQAAmQAAmQQAYBCoQMJNxAAiRAAiRAAiRAgcB7gARIgARIgARIIIMABUIGEm4gARIgARIgARKgQOA9QAIkQAIkQAIkkEGAAiEDCTeQAAmQAAmQAAlQIPAeIAESIAESIAESyCBAgZCBhBtIgARIgARIgAQoEHgPkAAJkAAJkAAJZBCgQMhAwg0kQAIkQAIkQAIUCLwHSIAESIAESIAEMghQIGQg4QYSIAESIAESIAEKBN4DJEACJEACJEACGQQoEDKQcAMJkAAJkAAJkAAFAu8BEiABEiABEiCBDAIUCBlIuIEESIAESIAESIACgfcACZAACZAACZBABgEKhAwk3EACJEACJEACJECBwHuABEiABEiABEgggwAFQgYSbiABEiABEiABEqBA4D1AAiRAAiRAAiSQQYACIQMJN5AACZAACZAACVAg8B4gARIgARIgARLIIECBkIGEG0iABEiABEiABCgQeA+QAAmQAAmQAAlkEKBAyEDCDSRAAiRAAiRAAhQIvAdIgARIgARIgAQyCFAgZCDhBhIgARIgARIgAQoE3gMkQAIkQAIkQAIZBCgQMpBwAwmQAAmQAAmQAAUC7wESIAESIAESIIEMAhQIGUi4gQRIgARIgARIgAKB9wAJkAAJkAAJkEAGAQqEDCTcQAIkQAIkQAIkQIHAe4AESIAESIAESCCDAAVCBhJuIAESIAESIAESoEDgPUACJEACJEACJJBBgAIhAwk3kAAJkAAJkAAJUCDwHiABEiABEiABEsggQIGQgYQbSIAESIAESIAEKBB4D5AACZAACZAACWQQoEDIQMINJEACJEACJEACFAi8B0iABEiABEiABDIIODK2cAMJlDKBNHD48GH09vVO6So2b96MefPmTelYHkQCJEAClUSAAqGSRtti15pOpzE0ODTtXjldTlRVVU14Xiwew5e/8mW8+uqrqK6unvAY3ZhMJtHf349/+Zd/wYc//OGsx3EHCZAACVQqAQqESh15C1x3MBDEn/0/f4aDBw9Oqze7du3CF77wBfh8vgnPi8fjuP/++/FXf/VXMAxjwmM6Ojrw67/+60gkEhPu50YSIAESqHQCFAiVfgcU8fqdTifuvfdebNy4cVq90CkBj8cz6TlerxcLFizIKhDUgpBNPExaMXeSAAmQQIUQoECokIG24mW6PW584hOfyEvXdPpCf7KVyfZlO4fbSYAESKCSCFAgVNJoV9C1Hjp0CH/xF3+R9YqHh4fR09OTdT93kAAJkEClE6BAqPQ7oEyvXx0Q29rasl5dJBKBy+XKup87SIAESKDSCVAgVPodUKbX/8ADD+Af/uEfsvoZqHh44oknyvTqeVkkQAIkMHsCFAizZ8gaLEhAHRDVQpDNEXGyfRa8HHaJBEiABApOgAKh4MjZYCEI0EmxEJTZBgmQQDkToEAo59GtwGtTYaC5DZ5++mmcOnUqKwE95uLFi1n3cwcJkAAJVDoBCoRKvwPK7PpTqRSCwSBuvvlmPPLII1mnGIaGhtDe3l5mV8/LIQESIIHcEaBAyB1L1mQBAqFQyIxe+I3f+A383u/9XtYeqZPid7/73az7uYMESIAEKp0ABUKl3wFFuv5YLDbrlh0OB2y2axckPXfuHHp7e7F+/fpZ188KSIAESKCSCVAgVPLoF+naNc3x17/+dbz55luz6sGTT34cn/70p6+IBPU/2L17N+rr67Fp06ZZ1c2TSYAESKDSCVAgVPodUITr1wf54sWLsWLF8lm1rusxjA9jvHz5Ml588UVzdcb58+dn1K3t6kJOankYGBhANBq95vyME7iBBEiABCqYAAVCBQ9+sS5dH9BPPvmk+ZPLPrzwwgtmZMJf/uVfXrEqjK+/s7MTf/AHfwD9reJAsynOnTt3/CH8TAIkQAIkMErAkLng7CvaEBMJlBABXcL58OHDeOyxxya0DKgg+PnPf46uri7oSpLr1q3DXXfdNaGYKKHLZldJgARIIC8EKBDygpWVFouATiOMn3YoVj/YLgmQAAmUOoFrXcBL/WrY/4onQHFQ8bcAAZAACeSIAAVCjkCyGhIgARIgARIoJwIUCOU0mrwWEiABEiABEsgRAQqEHIFkNSRAAiRAAiRQTgQoEMppNHktJEACJEACJJAjAhQIOQLJakiABEiABEignAhQIJTTaPJaSIAESIAESCBHBJhJMUcgWQ0JWJWA5obQn/Hl+r/H9l0fJqp/X79t7Fj+JgESKG8CFAjlPb68ujIlkEqlMPaji1/pA1//HhMDKX8Y6WAYqYTsS6k4kJ9gxPylSNLJFBCWv+XXWBEtYIqBtNsJOEe/GqpkvQu7DTaPC4bLCZvXLb8d5nG6kqZh2GDX/eZnQz7bx6rjbxIggRInQIFQ4gPI7pcfgbG3e33gJ+UBn5AFppLxhDzs5ScUQXIggPRwEOlwFBAhYD74Q7LwVCAMm/6OxmHE4oCcax+zHIg+MKSeK8X8O3Hlz/Ef0vLAh/5ISatQEOWQFgGg2xPykxaxkBahkPbJT7UH8MlPtRdGjRe2uirY6mtgk7/tDjtscr5d1t5Q4aA/Yo+Q+sa3xs8kQAJWJcBUy1YdGfarIgiMvfmrFSApD/W4CICEvNknB/xI9w4DvUMw+v0wBgOwDQVhk4c/RCwY8vAXcwEMtQRYpKRFEOgP5CclloeUiIRUYw0gogFNtbDJj725DvYqH+weNxxOu7my5pj1wSKXwW6QAAmMEqBA4K1AAgUiMGb+VzGQiMYQ8weRkAd/8vIAID+G/NhEENiGQ/K2PyICTCFQoP7lsxnTKqHCQawP3Y0rcLpqKzwNdjQttaNxkRM1DQ54qpyyiJZjRDTI1AUtDfkcEdZNAjcmwCmGGzPiESQwIwJj1oGETA2oZSDWN4hkzxBSHX2wtfXA3j0IuwgEh4oBnQowfQVm1JTlTzItHWLtsIsFZKA/gRN+mW7Q2QZbEi5vErVz06huNuQ3MHelA81LRDQ0OuAWQaErb9K3wfJDzA6WIQEKhDIcVF5S8Qgk5SGYSMhUgVgIEj2DiLd1I9XWC3u7/HT1wy2+A+ovWKklLaog7K4T3wlzhkScJYFIQH8MdJ8foWLYEqhqiKNhEcyfOcsdmLvchfp5LrjEUVIFg05LsJAACeSXAAVCfvmy9gogoBaCaDSKuE4ZnOtEqqUTNhUEYi1wid+AIc6GLCMExGsCA/HaSXGkBVegz5Af4NIHI1aGqoYQ6heE0LzcwLxVDixY40ZVrVMEw4iFYdIKuZMESGBGBCgQZoSNJ1UyAZ060OiCSDCIaN8QkqfbYJy6BLv4EDhVEKgjIcuEBJJ2F3qD1RPuy7ZxvGBoOyoBFo6ETEXEMXeVTEessmPhWhca5nvg9blM/wXmbchGkttJYHoE6KQ4PV48ukIJmCGH4lwYHfIj0i9+BCfbYD9yHjaxEtjEv8BK0QRWHqIh71w83fcAQjHJtZCDon4M3tq0ODsCC9bZsGSzW/wXXCIW3OZUBMVCDiCzioolQIFQsUPPC78RgTFLQTQQRLhdfAnOtMN+9IJMHQzCiMQoCm4EcIL9LenleGno7gn2zH6TigVPTRpzVgDzVtuwbKtLxIJaFkbEwuxbYA0kUFkEKBAqa7x5tVMgoGGIMfEpiHT0InZWLAWHW+C4eBk2TT5UxpEGU0Az60OOGVvwi4GbZl3PjSowxUK1iIWValmwY+VONxoXeOCR/AuMiLgRPe4ngRECFAi8E0hACKi1QB0No4N+xE60Ii1+BU61GEjCIpbcEXjXfjcO9y3PXYVTrKm6MY1FmyFTEE6xLHhQVeOG2y1po1VJsJAACUxIgAJhQizcWCkE1LcgHAoh2tmHxHsnYT/bDodEINCnIPd3gKZrfj7yKNpCzbmvfIo12sUte84KEQubDKzY7sHcZR74qiRFNMMmp0iQh1USAQqEShptXqtJwPQtkGmE0MCQTCG0A3tOwH5JEhcNS0B+BecoyPftEfPV4mcDD6M/7Mt3U1Oq3yNTEEu2Acu3O7F8qw/VtR7TsXFKJ/MgEqgAAhQIFTDIvMQRAmotiMuCRaGuXsRPXIT9nWOw9w3DJg6HLPkn0GVbiOeH7kc8aa0kR3YJqFiwTsTCFjvW3OZF/RwPpx/yfzuwhRIgQIFQAoPELs6OgAqDWCSCYGsXkscuwClTCbrwUbmsczA7OoU7+wzW4NXBXYVrcJot6fIPTUvSWLzFwOpbPZi/wguvV1appJ/CNEny8HIhwERJ5TKSvI4MAioMoiIMQhKJkDx4Fs5D5+AMhBiJkEGqMBuC9skzKBamF9lb0YRMva2G/ABn3o5g2fYI1t0VwqLVPni8HvopZEfHPWVKgBaEMh3YSr4s0/EwHEbkXDuS+07BdVgSGgXClYyk+NcuwQKvRe/B6dCy4vdlGj3wSl6FFbcYWHenCwtFKHh9dGicBj4eWuIEKBBKfADZ/asETGEQDCFypg2pvSfgkFBFuy6OxFJ0Akm3Bz8PPoT2QEPR+zKTDowIBYhFwY0Fq3zwUSjMBCPPKTECFAglNmDsbiYBM4eBWAwCrZ1Iv3IQTolMoMUgk1Mxt/gdDXgu9DCGQu5idmPWbWumxuU7gA33eLBorVgU6KMwa6aswLoEKBCsOzbs2Q0IqDCIx2LwX+xE8t0T4mNwFnZxPmSxHoE2YwmeH7xXElKVR2Ki6qaRqYeN93gxb5n4KHg81oPOHpHALAnQSXGWAHl64QmoMNAlloMd3Yip8+Huo7KKouQwYBrkwg/GFFsMO2vKRhzoJety1EdeBNo+CGH17RFsus+H+mafufz0FJHwMBKwPAFaECw/ROzgeAIqDMKyomL4/ZNwvH0Mjq4+CoPxgCz6+Z34bfgguNaivZtdtzQ8cs7yNFbfYcfme6sk4ZLPXHZ6drXybBIoPgFaEIo/BuzBFAio1SAkDoihY+eBvSfhkaWWaTGYAjgLHJK22xFMVFugJ/npgoZHdp+X8MiLKXQcH8amB8NYvqVaHBl9zKGQH+SstUAEKBAKBJrNzJxALBpDoLsXyZf2wXmkhQ6IM0dZlDPjhgtBW01R2i5ko6kEcOGAga7TCay9exBbHohhzuIqTjsUchDYVk4JUCDkFCcryyWBVDKF4OAQIu/JWgniZ+C+PKDLLuayCdZVAAKBlA99AWusv1CAy0VE3GE+eAHoPBnE+vsi2HBHNWrqfFxmuhDw2UZOCVAg5BQnK8sFAZ1OiEWiGD53CXjlAFyn2mDE4rmomnUUgUDYVY9EylrrLxQCQ0+Lgf62FNqPDmHzg1Es21xlhkUWom22QQK5IECBkAuKrCNnBMzohN5+RPadhvvl/ZxOyBnZ4lXUE9YUy+UR3jhdiknRteffN9DTEsHau6LY/qFq1NZX0YlxuiB5fFEIUCAUBTsbvZ6AzhzougmBw2eAt47AI+snGDLFwFLaBNI2A0PRqopfRdvfa+DgM0DfJT+2PBzF8k01Ztrm0h5d9r7cCVAglPsIl8D1aYrkQP8gIq9LFkRJeGTXnAYsZUEgZXMg4izfCIbpDJLc5riw30D32Rg2PjiAmx6No76xmotATQcijy0oAQqEguJmY9cTiEWj8F/oQOr5vXCfaIXBZEfXIyrpv6MpF3pDFAjjBzE0ZGD/z9KyauQwdnw4hiXra+B2l3YK6vHXx8/lQ4ACoXzGsqSuRK0GwcFhSXgkiyq9fhjunsGS6j87OzUCYVctIgnn1A6uoKM0d4JaEwY7JAvjwzFsua8W1TU+WhMmuAdOnDiB3t7eCfZkblq/bj3mzJ2TuYNbZkSAAmFG2HjSbAjE43H427rMvAbuw+ckQkECyFnKkkB/rBYp2Mvy2nJxUYOdBvb+II2B9kHseFzyJiyqgdNJQTXGVp2Wv/jFL+L111+fNAIkmUyip6cH//Ef/4HHHnts7HT+niUBCoRZAuTp0yMQEUdE/5GzsL24D+6Ll5kNcXr4SutoCVwYjFQhmarMCIapDlYiBhx/1RCREMJNjyeweoc4MMoqkSwjBPSF4r777sPnP//5rNEfFy9exG/91m+Za7SQW+4IUCDkjiVrmoSA5jYIyhoKwTcPwfXGYdiHueriJLjKYlfKsCPikRDHUFlcTt4vovOkgeHLMcmdMIjtjyVRU1vFVM2j1FUwLVmyJKtAUEuDzVZ5uTbyfVNSIOSbMOuHmv/8PX2IPfMOPO+foiNihdwTybQN/bHyT7Gcy+EMDhjY99MUhi4PYdcnEmiaV8MMjLkEzLqmRYACYVq4ePB0CUR1HQXJiJh+5l0zt0HFB8RPF2AJHx9z12DIT1P5dIcwKS45J9+EpGwOYMdHEli6vrbi13PYt28f/uZv/iarRaWvrw/9/f3TRc3jb0CAAuEGgLh7ZgR0SiEcCiGwT5ZlFn8DZ4+uozCzunhWaRLwJ6uQSPMrZqajp1EO/t4ItotIWH9bLXxVlbOexfXMBgcHcfz48azTCFEJl9bIKJbcEuD/3tzyZG1CwFyaWUIYTX+D1w7BFgyTSwUS6AtXIZZkBMNshr6v1cA7/5GUKYdB7Hw8ido6a07ZdHd3m1OJs7nWuro6c4nsiep48MEH8bd/+7dZfRBaWlrw8Y9/fKJTuW0WBCgQZgGPp2YSMLMidvch8rJEKew+AiNBVZ9Jqfy3pA0DUbc4KDIp5qwHOzQESdMsTr59w7jjV1JoaKrNamqfdWMzqCAWi+ELX/gCXnrppRmcffWUz3zmM/jzP//zCa0EhtxPmkzK4Zj4kaX79BiW3BKYmHZu22BtFULAdEZsv4z4s+JvcFDWVOCUQoWMfOZlpmVxpoGkLtLEkgsCGgp5Qv0Sgn7c8akU5i2ptYzzot1uxyc/+Unceuuts7rUxYsXTygOxleq1smJSrbtEx3LbVMnQIEwdVY8chIC+hYROHsJKXFGdMtCSxQHk8CqgF0phwvdAxQIuRxqzb54/j0DsXAQuz6ZxJK1dZZIqqQC4d57783lpV6pSx/8mgfhqaeewrlz565sv/6Dfv+0tcn3DktOCVAg5BRnZVamqzD6D56G8fP34OqYWkrUyiRVOVcdtNcibnNVzgUX8Erbjhh40x/BrZ9MYfVNdXB7yncdBxUIGp2wc+dO3H///VmnEdSJ8dSpUwUchcpoigKhMsY5b1cZDUcwvOcoHCIO7P3DeWuHFZcWgYGID+E4v17yNWo9Fwz84tsxCYUcwMY76yXzoidfTRW13qGhIdMy8Pu///v4nd/5nax9USfFH/7wh1n3c8fMCDD11My48SwhoGGMQ7sPwfnUbooD3hHXEAjaaiSahU5j10DJ8R/D3Qb2fD+Jgy8NIiT/F8uxnD9/HsFgEGvXri3Hy7P8NVHiW36IrNnBkPyn9b9+AB6xHBjRuDU7yV4VjcAw6orWdiU1HJRFUA88k0QsMoRbngCqyixXwi9+8Qs0NTVh48aNlTSslrlWCgTLDEXpdEQVffDF9+CRUEYjniydjrOnBSGQFqe1vlB1QdpiI7LUhYRBHnhGPBiNQdz8OFBdLQmVysB4o6szPv/883jggQcwd87cjKHWkGqNnFInSfVBCIfDWX0UMk7mhikRoECYEiYeNEYg4Pcj/LO34X7nGMXBGBT+voZAzFWFULhys/5dA6NAfySiwP6nzOBS7HgsjepaX8k/LJ955hnT/0ATJBm2TMWjyZn+6I/+CPrbL99L+uIyd26mkCjQEJRlMxQIZTms+bmowNAwws+8DdfbKg4kYTwLCUxAYChWhUC0PJ3mJrhcy2xKykzf+z+BhEEO4raPp1FbX9pWHF3iWXMj3HLLLRMy1syLjz32GHQdBqfTaU5DaLQDS+4IGBI/OnHmidy1wZpKnICGGoVEHAR/vgfutyQ7IsVBiY9ofrt/1liDVwZ25bcR1p6VgN0JbH7YwB2frJUlo0tbJOg0ApdxzjrUed/BKIa8Iy79BkLDYr4TnwP3mx9QHJT+cOb9CgI2JkjKO+RJGlBLwrFX0tjz02EEZEXIUi4UB8UdPQqE4vK3fOuhwIhDovu1g7KuAh0SLT9gxe6gTBUP0P+g2KMATc2sIuG9p8XyFyzPEMiiQ66ADlAgVMAgz/QS1ekn8JJYDl4/BCPJRZdmyrGSzks6PdAsiizFJxCTRVQPPZfGvucGEQxwRdXij0jp9YACofTGrCA9DofCCL2yHy61HNDnoCDMy6GRUMqD4URpz3uXwziMXYNaEg48ncaRNwckDDAytpm/SWBKBCgQpoSpsg6KyNoKgd2H4RDLgS0i3zAsJDBFAv5UNfwR8ZJjsQyBuIRA7vlBGkffGkSEIsEy41IKHaFAKIVRKmAfdVU0/74TcLy8H3Y/5y4LiL4smgo5apli2YIjGZP/yu//JIHT+4ag/8dZSGAqBCgQpkKpQo5JJBIYPnYedlmy2d7vr5Cr5mXmkkBPkNMLueSZy7oCfQbe+3EcLUeGzCWUc1k36ypPAhQI5Tmu074qjTf2X2iH8ey7cPRxVcZpA+QJ0BTLQYMCwcq3Qn+7gb3/GUXnBb+ZptjKfWXfik+AAqH4Y1D0HmgiJH93HxLP7YGz9XLR+8MOlCaBuOGC3+AiTVYfva7TIhJ+HEJfV0Cmg5gnz+rjVcz+USAUk75F2vZLlsSYrq9w7IJFesRulCKBUNqHgRBTLJfC2F04ICLhKT8GeikSSmG8itVHCoRikbdIu7r4UvSZd+A6eAZI8W3CIsNSkt0IueqQSNlLsu+V1mk1HJx8w8DBFyXbIp2RK234p3y9FAhTRlV+B2o4Y2j3B3DuPcEsieU3vAW/ou4QIxgKDn0WDapI+OBF4Pgvhhn+OAuO5XwqBUI5j+4k1xaPx+E/fAbOV5nrYBJM3DVVArIcrz9ZBdqgpgrMGsfFJXfSgWeTuHBsmJEN1hgSS/WCAsFSw1GYzmjEQuBiF4xXDsA+wHDGwlAv71aShgNhR015X2SZXp2/x8CeH8XQ3T4M/W5gIYExAhQIYyQq6HdgYBAJWZ3Rdb6zgq6al5pPAtG0G70hhjjmk3E+6+45ryIhjMF+Oi3mk3Op1U2BUGojNsv+BmX518jze+A+dHaWNfF0ErhKIOKqQSTJFMtXiZTWJ/VHOP+egfef8SMk67CwkIASoECooPsgGo0itOcYXHtPMmKhgsa9EJfaH6tFMs0IhkKwzlcbKhKOvQyceEfCnpmOOV+YS6peCoSSGq6Zd1bTKAfOXoL9NTolzpwiz5yQgAEMRn1IpuQDS0kT0NUfDz6bwKXTQ8y0WNIjmZvOUyDkhqOla9FsacH+QaRkASbH5QFL95WdKz0CacOOiKe29DrOHk9IYEDSMe9/Oor+bj8zLU5IqHI2UiBUwFiHw2FEXjsI99GWCrhaXmKhCSRgR2+YAqHQ3PPZ3qUPDBx5LUR/hHxCLoG6KRBKYJBm00WdWgjtOwn328fAIPXZkOS52QjEnFUYjnmz7eb2EiSQTIg/wispXPjAD/0OYalMAhQIZTzuOrUQuNwL7D4KW0gyorCQQB4IBNJVSMCRh5pZZTEJhIdleeifxNHdxqmGYo5DMdumQCgm/Ty3HfIHEHtB8h2c68hzS6y+kgn0BqsRSzCCoRzvgZ4WA/ueCSIYCJXj5fGabkCAAuEGgEp1dywaQ/D9E3DvP12ql8B+lwIBw0DUwwyKpTBUM+3j+fcNHN/tZ+jjTAGW8HkUCCU8eNm6bqZSbuuC47XDMGKcP8zGidtnT0DXXuhLNMy+ItZgWQIxMR4cezWBrlY/UzFbdpTy0zEKhPxwLWqtwVAI77ReRn9EgppZSCCPBJJOj0QwMMVyHhFbomqdajj2eoRLQ1tiNArXCQqEwrEuSEuaAe3N3gE8V+vDVz58G17euAIJB+eHCwK/AhsJ2qoRh6sCr7zyLvnkG8C5A35Z9ZFWyUoZfQqEMhppjVq4LI6Je4dDiKfS8Fd78MLdm/Cvt21Ea1N9GV0pL8UqBAYiVYjEGcFglfHIZz/iUWD/U0lz1Uf9rmEpfwIUCGU0xiFJiPRy7yA6o/ErV6X/jU9sXob//djNeHHzKloTrpDhh1wQCNpqkEozxXIuWJZCHYOdMtXwWhihIBd0KoXxmm0fKRBmS9Ai5yeTSRwfGMLBYETSo2Z2KiDWhJfv3ICv3nsTWhbOyTyAW0hgBgSG0nUzOIunlCqBVAo483Yal04FuFZDqQ7iNPpNgTANWFY+dDAQxBuDAYQS8j84S9E951cvwP++byue3bwScfomZCHFzVMhkLZLiuUQQxynwqqcjgkOGjj4XEwcFoPldFm8lgkIUCBMAKXUNukyzq+LY+KpkEwSTqGEarx4/c6N+Pr929EytxG0EE8BGg/JIBCVFMsRuy9jOzeUP4HOEwY+eDUA/e5hKV8CFAglPrbqLNShjon+8IRTC9kuT2chzq2cj288fgueuWktYk46mmVjxe0TExiK+RCIuSfeya1lTSAhbk5n3kmhpz3I3AhlPNIUCCU+uKFQGC+JY2L/DBMiRdxOvHnrWnz1nm04ob4J9Dcr8TuicN0PppliuXC0rddS7wUDR18PIRqhFcF6o5ObHlEg5IZjUWrRjInHhoZxWBwTZ1PUmnBBfBO+8+hO/GzrGoS8fCucDc9KOddvcInnShnrbNd5+i2g9bifDovZAJX4dgqEEh7AgGRM/MWg5EhPThC2MIPrCrsceGvXOnxNfBOOL543gxp4SsUQEEtTf4j+BxUz3lkuNBIwcPIXcQT9s3tJyVI9NxeZAAVCkQdgps3rGu37JazxTCi36ZRValxa0oxvP7ANP9ixFlH6Jsx0iMr6PE2xHHQx+VZZD/IUL+7CfvnOYNjjFGmV1mEUCKU1Xld66xfrwZ6hoJkx8crGHH6IeV1475a1+NIjN+Po0vmMdMgh23KoKpx0w5+gBaEcxnK21xCTnEkHnklgsC8w26p4vsUIUCBYbECm0p14PI63+4bQEr6aMXEq5033GLUmdCxuxr8/vB0/3r4Wwz7PdKvg8WVKIIBqDIe4BkOZDu+0L6u3RXwRjoaR4DoN02Zn5RMoEKw8Oln61idJkfYHQkhOlDIxyzmz2awJld4Va8LXHtyBQ0vm0ZowG5hlcm7AXoc0Q17KZDRnfxm6TsPh5xMYoBVh9jAtVAMFgoUGYypd0dUa3+4fwqVIfq0HE/Wlc2Ejvv/IDnzvtk3wV3knOoTbKoRAT5BLPFfIUE/5MgfaDZzZG4Z+R7GUBwEKhBIbx55gSKwH00uKlMtLjIk1Yf9NK/CVB7djz6rFuayadZUIgbTcAyFZ5pmFBMYTGEmelERgmAs5jedSyp8pEEpo9FSZv9k3iMvR4q7HrjMb3Qsa8ZP7tuC7O9djiNaEErqLZt/VeNqFYTAHwuxJll8Nmjzp2BtBWhHKZGiZX7eEBnJQIheOBa2TtSwhb5L7bl6NCyvn4eGD53HzuTbYCuQXkZdhk5BO2/wmySY5cTrJVHc/ELnWfGrU14yco+GgsTiSLR3m7+n0z5D1MGzNEjJosyEtWelSF6SORPLaKiR5lU1yUxh2G1LdA0jLNNM1RbpszGuC4XIi1dkL5NFZLGx4MRDiFNM1/PmHSSAp7y6tB1PYeHcETfPoxFrqtwUFQomMoEYu/KJ/GJflIWS10ttYgx+JNeFYUw0+eqIVTcOlucqbfeUi1Pzuk+ZD+HrGaUlG5f/mM0gePTeySx7Ijls3w/vYbXAunQtDxFJa0l1H5fojL+xB8oS4dd+oyMPe9egueGUJbvuc+pGHfziGyL6TiDyzG2kVJFKMOQ3w/spDcG9eIcfYkRCBEPzuy0geG+2LHGPfsgbVv/Yo4hcvI/yt55HOo0AIOuuRSNH4aA4O/8kg0HnKwKm9QdzyIS+cTmfGfm4oHQL8X14iY6VZE48U0ffgRpiS8rD74KaV+OpDO/H26iXQv0utGHXVsDfUwJBwTjWEpGV97LEfc8M4y4L5QP7MQ3CtWoiUpLqOne+UY1Pw3LQaVZ9+yHybv9H1O+/bieon74FjfiOSA5IRs6UThtMOn6yL4fn4PcDo1I3zlg3w3rwOsdNtCL12AA6Z3vF+/G5gLOxUfnseuQW2Gh9ie44h7Q/dqOlZ7e+RJZ7TXAJ0VgzL+WT9v3P+vSQGe9VXSv5gKVkCtCCUwNCp9WDPwDDao9azHlyPr29OLX724DacOVKPx+Vteq70u1SKrbnO7GpcHtSBbz4LhK9NH5se+9tmwH3nFlNMJPv98H9DLAst7XDIOha1/+MJOJfPh3OHPNBfeCfrpRvy8PfcvRWGLJYVO9+BwNd+BogAdN6/EzW/fA98d2xC/PBZJPafgH3xXLOe2HvHkRQLgUf22cVqY1otZI/rwVvg3rQCof96H4l9J7K2mZMdcu3+WBVDHHMCs3wr6Txp4MKRIBrm+OBw8DFTqiNdeq95pUp6Fv0OhsM4IA+PVImIcXWhPLxlGf5ZIh1eW7esZPIm6ENbi77Np4clK5xaDMSkr34B6SH5e3TFTKOuBq71S81jo4fOIHn8vIiJKBIy/RA702Zud9+6AUZ19kyDNpnOcI4++KN7jiPd1Ye05LaIv3MEScmQqf4IjnXShlglUjK1JJ2BQ86xLWyGTfwRUmIlSCdTsIsoqXr0VsQvdCH64h4xeeT3JkkaDoQcdFA0B5n/ZCWgt+Gpt1IYHsivNStrB7gjJwQo7XKCMX+VJJNJHJKHUzHyHsz2qobEJ+H5uzfh7Nw6/PLhc5b3TTAkvbQWQx7OnifugvuW9abTX+JSNyJvHpK38+PywJb0QGJpUHO+lmT3oPnb/CcomeTae+RtfjnsTfIQnWQdC3WGNC0AMr7JC51X6lArRbJ3yLROqCUi4vUg/v4JJG7bKL4K2+C9czPS4sAYfe+Eeb7noZuljw6EX9yLdAGsNTG40BuqutJffiCBbAR6RDd3tYRR11glOtue7TButzABCgQLD452LRSJYL84/cVLxXxwHc+U+CKc2LgUX5KUzfdKpMM9Zy7CIW++ViyGa0QguLetEr+CRUiJMLPVVsG9ZSWcKxZgWN7sk6cuwNZYZ4oIvYa0iILxJT3qRGqoOBBzfLai0QZmIsJ4EunxU0caCTE4ktPeJr4FKiJSF7vg/8pP4NiyyhQDSbEWJA6ehOuJu+GRvgaee3dEvGhj2mYe75WIqwbRJL3Ts40rt18loNkVT76ZwNL1UVTXZremXT2Dn6xGgALBaiMyrj/q4HNKxMH5ImRNHNeNnHwcli+I5+4Ra0JzLR4/3orF14fp5aSVWVQiz9V0NIZEzxDiEqoYee4dpGW9C/vGFaj+1Ydhr6+GW5bBDrW0yZSDhjqqKV9Ouk4DGGOOjDI1YB6SrUtiORgp2etQp0fzYS/3Qaq1EzH5GSvaL59YD2LnOhB7/QDsm1fBc992sWxUIXG5H7FfHDbFzKR9GKtsGr/7orVIpPk2OA1kFX1o+/E0utuCqNrglRm76/6zVDSZ0rh4CgQLj1M0GsX+IT8iFn3jni66tHxBnNi0FG3L5uKeg+dw3ym1Jow9KKdbW+6Pjz63e2QeX0IE04N+s4HE3qOIybLX3ts3wbFojkwbOJHuHRQzf0re5m0ZfgaGZ+TtOqVWgUnGLS0+JeZ0hUQtGPJQv1LEsmDT6QkpKbEkpCdIW6u+DZ6HJWpB2go8/674SRgiYh4xpyXUF8Er0xGOBU0IfOnHV67jSv2z/DAU9cll8Yt+lhgr5vSw38Dpd+JYuDIGj8ddMdddLhdKJ0ULj2R3KIwz1yXmsXB3p9w1f7UHL4pvwjfEi79VExNZoBhVPrg/ejd8n34YDnkbv1I0XFPM/FrUwqBOg+mQ+AmMCgiHTD3APeq70FAL55qR9NOJi90y/TDqoKVGAnVYHK1H61K/A1NEqDPi6Dm63bagGQ7JiaBFH/YYP/2gG2UKwXnvdnhkdc3Q6weROHwa9hWL4JjXiIhEPQS+8p9IdPSauRlsi0aiH/S0XJS0zY6wZyTSIxf1sY4KICCGttYDKQz20FmxFEebAsGio6ahjfvlITQYs84bdi5R6VWdWbcI37x/G57dtLLoeRPSwlujAzySb8D35N1w3LIJmuHQee9OmedfbV56XMz5Gq2gEQ6Rd4+Z2zzqn3D7Zhjzm+ESk78ZmSAiInbs/JVsiI7bt6LmT/4PeD79iAiFkUiJlEyxxE5fMuvw3rUVjtukDhEH7gd2wibHpDQqQiws1xf7+hWo+vDtMrXQjuhr+0faUCuMihB1BBNBo06MZgRGjk26SdjRF665vkv8mwQmJeDv1UWcItDvNJbSIsApBouOV0hCG4/Lm2p+g9aKf/FB8U14466NuDS/AR/54DyW9A7AKMZFy5t6dO9xuDYsM9/gaz/3MTHvi2jQKQN5yzfn+t/+YASYTB3E35WpB8k94Fot2Rd/40NIywNdnQr1QR1+7xTiuw+PHCvbvA/skDf6eXDMbUD0lX1mvgPxPjUzLup2zWlQ+9tPmJkYzTrEyTAsCZGSR89eO0AqYD60yxQB4Vf3I325z9yflCiLRM+gGT2R/tVHTYdKzaiY6uy59vxZ/hVz+jA8zBTLs8RYcaenRK9ePJzE1ocjqKtjZsVSugHsf/Znf/YXpdThSuhrSt5Aj/UN4I3BYD4d0i2DUvVAvzwkD2tYn2HDcg3zy6MnfrYL1wduvKNfRJlhvsXrugfJ4RDC7xxF5Nm3TUfBsXM1W2FCpgDUr8Im0wcabaDRB6FXD0B9GTCWzVDe7tMyZ29f1IyoTAHEJdnR2DoLaVl4K97Wg7S8+dtqRpy44pIPIfTzPVd8Icba09+2pfPhEEERefsIEm8euLpLpjKSvcPQVRbV9yB6pAWRl967pr9XD575p357M06GxdrDNMszh1ihZ8bF5WbOyjSaFtBZsZRuAUNWCCzG+1opMSp4X8NiPfhOawf2VuCyqYY8nped7cLjRy9gTbe8IRfj7pR5fqNJ/ADUZJ8Qh0XNL5DN4VCPbZB5eXE21ERK6UE59npxIyLCkBTOamXQKYqMIkLErMMhM36yFkNaHFNnVLQvtdVmwqUxETKjerKcdDyxDm8Fbs2yl5tJYHICmx5O48H/1izOimJpYykJApxisOAwDUiynDNlENo4E7T69n5h9QJ8e0kzbtt/Fg+duQRvoR015QGf7hmYWvf1WLEETFokTDFtZkPMcpSIj7RMrcy6aF9GnSdnXdf1FcjUSdQj0RUjKRqu38u/SeCGBLpOAgOXI5i/1M2QxxvSssYBdFK0xjhc6UVC3ljflwQ9A3lcje9KYxb+EJQ1Cl6/YwO+ISsdHs+xN76FL9uyXdPFmXpjI9EVlu0kO2ZpAv1tBi4dD0Ozw7KUBgEKBIuNU1gyJ56Q1QE1l3mlF0VwYflcfPuBbfiRhPXFx4UJVjqbQl9/0ulGf7S60M2yvTIioN9p6qwYkWk0ltIgQIFgoXHSzImtkrq3VePtWa4QiPnc2HPrWnzp4ZtxYvG8kln86coFlMGHkL0GsfRIvocyuBxeQpEItB83cLlVFhrjG1CRRmB6zVIgTI9XXo/WOOEP/EHEkjQfXA9aibQtnYNvPbIdP75pLQKjGQuvP45/54dAX6QaoThD1PJDt3JqjUm+pK5zktJcplJZrE+AAsFCYxSW1MothXbIs9D1T6UrMVkE6V2xJnztwZ04Kr4JMjXOUgACakFQPwQWEpgNATUcXNiXQmA4MptqeG6BCFAgFAj0jZpRk1ubpFbujFJZ34iV7m9f3IT/eGwnfnjLRgQ0QRFLXgkMJUfWh8hrI6y8Igj0thoY6FI/K1pKrT7gFAgWGSGdXjgqyXUiuoIfy5QIRMVp8b0dK/FPssrinpWLpnQOD5o+AU3kRAfF6XPjGRMTiIvxoOOULGvOaIaJAVloKwWCRQYjLKv2nZfpBYrq6Q2I8uoSa8JP79+K7+1YBz+tCdMDOIWjNcVyxCaLTbGQQA4IaOrllv0yzTAk6RVZLE2AiZIsMDxqamuX6IV2Ti/MeDQ0BPL9W9agdcU8PHLwPHa0tMuaDjRhzhjouBMHZYnn4WjhpnEWrnZhxXYPGhY4IZm3ERxI4vTeENpOZkb3NC10YPUtXsxZ6jKPHe5L4Ox7YXScmbrYXrjGhVU7vaibO/J12N8Rx4ndITGDX53u81QZ2HxfFZqlnXgkhQuHIzh34Np59GWb3Vi62YPOM1Gc3X/tvnE4+VEIDMq6Z4O9sjZDYzWTJln4jqBAsMDgqEfv0YBML2RL52uBPpZKF7qba/H9+7fgsPz+pWMtqBfhxTI7AkFDQhwTkkq6AGXjXT7c85l6NC2WkMoxfSe+kRvvrsLuHwzi0CvBK71YsMqFB/5bA5ZvHV1AatSHcst9NXjlX/pwak/4hha59Xd4cd+vNaJpkURoaHtah/xef0cVnv3HXvRclAW7RKTc+ck63PZkPfwiQHy1dnP/M//QK4l/RlJn1zbZcccn6rB4g0fOy+0iWVcuuIw+RAMG2o8nsHhVEg4HH0NWHVpOMVhgZDR64bzk6B/7PrRAl0q6C0mxJhzZvhL//MjNpm9CUr/hWWZMwG8UxkGxYb4Dt328zhQHA51xvPbtfrz+7/24fD4qb/dO3PWpesxdOhJq6XAZuOWjNVi+zYt4NI13fjKIN+TY3ksx0xJwxyfqUVU/uaipbrDjto9JeyIO9MGv7b0r9QQHk1iw2o0Hf6sBTreB+nkObLhLwjyHk3j6iz048rrf7M+qHSPCRFfV3v5YNVbc5MPenw3htFgwWCYnoK5WF48kEZZVTVmsS4DSzQJj0xOJoo3TCzkfiZ65dfjJw9tx9nA9Hj15EXPytU5BzntuoQrl6TcQqSpIh1bc5DEfzDEx4b/yr/0yrTDyoO04HTUtCDrdgFGtt2itC2tuHenXvueH8OZ3B6Fz2wF5uD/22WbMW+XGul1e7H8h++IRK7a5sWidR1bbBHb/cBAHXhw5Vh/4ai1YvN6DeStciIVTsDsNJONpc9rB3zuSKtjlGTFZaL93PFaLi8fCOPRywOxHQYCVeCNDMs0QGIyhpjD6s8RpFaf7fLUqDvcrrer0wmmdXmD0whUmufygs8j7t63AVx/cjjfWLGHehGnCTTpdCNpltco8F104c8lGj+lH0H4ygq6zMawR34Lbf6kWc5a5cPClAF74aj96WuNmT/St3uOzISEP7UvHIlceymfk7T0wkDCnBRZvcE/aaxUHpo+DiAr1KRgrZ94Pm6LA5bVJn9xiXUiaVoyqOjvu/lQd1t9ZJaIije7WGKrrbWL1qIUh/X/v6WEMj4qHsbr4OzuB0JAh0QxMmpSdUPH30IJQ5DHQ8MYWXeKX8wt5HYkB8Ul47p7NODu3Hp84fA71IspYbkwgnHRjKJF/C4IhS1XrFMNYeex3m7Byuxc2u7yly/+NvraYTDcMXDHfq0BQf4GETC8EB6+GBidk9fpocORvb83kUwy1zSP7deogII6QY0UFQTyaglsESKM4QYYDKbz/7DDsDgPrxDchHklj//PDOPF2CLd8pAYrtvmw56lBqLBgmTqBhPicdpxMYuNdcfohTB1bQY+8+j+yoM2ysTECkVgcHRW+cuMYi3z/Vt+EY5uXSZKlZtxzuAV3n7kIBx1DJ8UeRDWGQ/lfg0HN+upXoGWRmPZDQ0kcfHHY/Hvd7SPRAw/8ZgP6OxMiFuLwjfoXpCQtuYqC8SWZGPnbFBfjd1z3WacNtKR0mexxVeiUQnLEUGFOLegxGrGgDokqGGLhkamG1Ts9Yj2oN1coPPCiH+qo2Cj+DGqV0D4O9VwVHVoHSyaB3otpREJxeL2jjqaZh3BLEQlQIBQRvoY3XgxH0E+BUNBRGKyvEmvCJpyTEKuPHGvF/CF/QdsvpcaGbA0F6a4+n8dm2WxiTXjruwM48kbIDCpoFx+Ex3+3GU0LXWJV8JgP37C89WvRh7FDHAnHF5u86WtRn4HJyth+hxyvAmWs+GQqwTnqXxANXbVOxMRy0HV+RDl4qm24VRwctf39L/hNh8j7f73B9FswBUJ7HC9+tU/8EkaiHMbq5u9rCQxfhjlVU9+YZrjjtWgs8Rd9EIo4DJpJ7LSE4UW5OFPBRyElT4RjW5bja4/fijc2LEfSzv8KEw1CbzD/0wvars7pa/SAFrUedMqCPlr0EX9JHrJReWtXtaCRB/q23yvhh2o9cLptqG68OpXgq7OZYYh6ruZEmKwMy1SCFn3Ya71jpW6uHS7PyP3Qe2nUlDC2c/T3bR+rMXMe7HtuCKfeDWHL/dVYtsWLg/81jPeeGULzEpcIiFqpZ5zyuK4O/gmZDjLQLaKLizdZ827gt2IRxyUm2RMvcWnnIo4AMFTrNX0TvnnnVrTObSxqX6zWeFri03WRpkKUpDzLz+0PISXTA17JM7BMEg5psclze+VNXnhrbKYwGIsg6BZnxfBwypyWWLfLZ1oANJp1zS0+1DQ6zGPbT159e29e7MDGO32om3NVCLQcCpvTE2ox0CRIWuxiU122xWPWGxFfhjGnSHPn6D+rZGph+6O16DwbxQGJklCLR9Nip2mxaDkYwWnJv6DJlNSnYmwaY/z5/Hwtgd7WJAXCtUgs8xenGIo4FEMiDrpinKcs4hCYTesInNqwGO0LGnD7By147FQrbPJGW+klnnYgID4IhSoagXDTIzEJLXTjdsljoJkU1S9Bkxapg2DPRUlHLg91Lf0dkjFxXwjbHqoxcxSo34H6Imy6VzLziVBoPRKW/SPHqjPiR/9wDuZKNMTpvUH87P/rNaczWo9E0X4qYr757/hQLdxVNtMxcdM9I9d86p2gmZFx/PWrpeGWJ2rNfr3/jEQtiBXCIb4MIbF+qM/Dkk3i1Hk5IVMUNvFBSCB5nX/E+Lr4eYTAgIQ7+gdi9EOw4A1BgVCkQUnJhGurrN44GKdAKNIQZDQbEN+EVyXS4eL8RjzxwXks6h8csXFnHFkZGyLwoj9YuDUY1Knv5W/24+H/0Yh5y91m0iSdY1Cp1n0hZuYq6GsfmTbQ8Ma3fzQk1gabpFquMt/oxxwNOyTV8ds/HpLERiP+A/oA1xBFfZtXoTFW1ELw6r8N4NHfNrBQQh5vfWIknFOdFlV87P3Z8DUOkOqncNMj1WLR0IRIgzguUQxatC/7nveP1PHROlN8BPoTZrrmmERZsExOYKjLEMEXRfP8lFhjaNSenFZh9xpi5uYdXFjmZmsa3vifF9rxykD2RC5F6BabHCXgC0Vxu0Q6PHq8Bc5EZYq4Du8KPN91B5Lpwn5p18kb/5rbRtZX0OHoE4e/8wfC6G3L9CnQqYe1t3oxX9Iua6ikrqNwTiwHfWJhGCv6YN8g0wvNS5xokXwHY+mRx/Zr9MFaSaqkfgPqONzdEpdwytA14ZN6rD67lm/1mNMQ7adjVwSI7tM25kiWx6ViQVBLQvspsU7IMSxTI3DXbxi49fG5DHecGq6CHUWBUDDU1zYUCoXwNREIxwJX50mvPYJ/FZuALva04mwnPnKkBSt6BordnYK3fyi5FXv9W+UN/upbd8E7wQYrgsD6+4CH/3uTTDMUblGwigA7y4ss7KvBLDtbTqeHxILQy+kFSw9pWl4Lz69ZiH+VSIcXNq1ExD2yDoClO52rzsnrcjBdTXGQK56sZ1ICfRckimWYFpdJIRVhJwVCEaCrGXMgKolUEldjrIvQDTY5RQIBjxMv37UR37h7K04snDPFs0r7sKTkDg46ChPBUNqk2PtcEBjuNiSbpWaU5Yx3Lnjmqg4KhFyRnEY96qDYJgs0Rccyw0zjXB5aHAL6tdWyagH+/YFt+Mm2NWWfNyGWdqE3WLgIhuKMKlu1CoG4zLRq3gr9bmSxDgEKhCKMhSYFaY1w/YUioJ91k5EqD97etQ5femgnTi+eW7aLP0XcNSJg859iedYDwgrKgoCuqNl3UVJcS/I4FusQoEAowljERCB0M71yEcjnpkm1JlxcPg//+sgOsSasRagMfRP6IjVIpK8mFcoNOdZCAhMT0JmFXvFDiHHZ+4kBFWkrBUIRwIdkgaY+OigWgXxum4w6HXjntrX42gM7cHLBnPKxJkjQgj/uQzLF6IXc3jGsbTICQ11phPziqEg3hMkwFXQfBUJBccu9L1K5XwTCME1pBSafn+b0u+zS0jn41oduxk92rkewDMK0UpKKMOQeSRqUH2qslQQyCQQHDFlaOyH6gAohk05xtlAgFJi7CoQ28T9IMJVvgcnnt7mo0453dq7GV+7bhn3LFuS3sTzXnoIdfWFGMOQZM6u/joAusT3ULQKBkQzXkSnenxQIBWavTjhdYkGgRi4w+AI0p2PaJdaEHz+4DT/YLr4JHncBWs19E3FXFYZlioGFBApJICXJL4e6UoxkKCT0G7RFgXADQLnenRCBMCypeymSc03WOvXFxDfhvVvX4suP3YoDKxdBl5YupTKUrEYsXUFJoUppcMq4rxrhqH4ICfpnWWaUKRAKPBQawTBI/4MCUy98c6Y1YV4dvn//Vvz7rRvg95VOCtmBSBViCUYwFP6uYYvDPWlEIzLXwGIJAmW9mqPOZU0nrtbhyD+OiAiEYWZQtMTNX4hOJBx2HL5pJbrmN+AhWUp6R2untZeSFmNHxFMrYQyFoMM2SOBaAoFeMNTxWiRF/Sv/T8QpXt7ly5ehCYSmW1wuF+bMmTj97alTp/ClL30J4fDIuvCT1b18+XL86Z/+KZzO/JpWA+J/EEgyW9hkY1GO+y6LQPiR/Jw+eB6PnLyI5mFrruKpCzP1RRnBUI73YClcU0y+qqOh6T8HSuHaSrGPlhAIsuQ0Pv/5z+Ott96aNsMHHngAX/3qVyc8r7+/Hz/+8Y/x4IMPYtmyZRMeoxv37t3kSebEAABAAElEQVSLc+fO4U/+5E+yHpOLHWrR6BGBkKADQi5wllwdajh9f/tKnFvYiPuPXMCd59tgWMxbNeV0YSBUVXJs2eHyIJCIGZJyWXy0VohULTHfnfIYgWuvwhICwW634zd/8zfxqU996treTeGv5ubmSY/Suv/4j/8YO3bsyHrcX//VX+PlV17Ouj9XO3S6o18ccFIUCLlCWpL19M+rx9NNW3Bafn/y8DnUBG9s4SrUhQbttYiidPwlCsWF7RSGQEJUdKBvJJJBv7tZikvAMgLhjjvuyBsJmyxdqz/ZimErjJe5LkQyIBEMTIGQbSQqZ7v6JhzZshxti5pwz5FW3H3mIuwWmHrqD1chEOUaDJVzJ1rrSjXU0S+OivpdSYFQ/LGxhEDINwadalAfh2wlFApl25XT7Um56ftFILCQwBiBgcYaPHvPJpyvr8JHj18Q34Tg2K6i/A45xEGRhQSKSCA4IM7l8j2Zb3+wIl5iyTRd9gJBHR//8A//cFI1qgJi6dKleR80zYHQPwNHzLx3jA0UlYDmSTiybQUuyQJQDxw8hzvOXiqaNWEwwQyKRb0Z2DhCQ5ILgaHglrgTyl4gqJnqs5/9LDZu3JgV+Le+9S2cP38+6/5c7VAfhDDnF3KFs+zqGazz4en7tuD43Hp8+EQrFvcOFvQa0zINNxCuLmibbIwEricQHoJYEBjpdT2XYvxtKYFw+PBhXLp0acoctm7desM3f/WE3bVr16ROirt37y6IQEjIFEOEAmHK41uJB+oE1MmNS9AhIZF3St6Eh8Q3wVageyYmKZYjUUYwVOJ9Z6Vrjsos23Ty11ip7+XWF0sJhD179mQNWZwI/Gd/57P47Oc+O9EuS27zxxOIF+jL3pIA2KkpExhurMZ/3bsZF0QofOToBSzsy781YSjqw2DUO+U+8kASyAeBhKz4HBpKorEpH7WzzukQsJRA+LVf+zU8+eSTU+6/zzf5gjKad0B/3n33XfT19WWtt729Peu+XO4IyBRDiss05RJpWdeVFOvXifWLcVEWgLrjkCRYOt4CRx4jHYK2GsQT2aN9yho2L84yBJJxQwQCpxisMCCWEgj6wL/RQ3860NT5cGhoCH//938/qUdsb28vNmzYMJ2qp32shu0EGeI4bW48AQj63Hjl9vU431SLjx1pwZI8WRP8oIMi77fiE0iKBSHsH8mFMFl4evF7Wv49sJRAyDVuFQcrVqzAd77zHcyfPz9r9V/84hexf//+rPtzskMy5gWSEt/LJEk5wVlplaTFmnBu3SJ8U6wJd+07g3vPtsEtWTlzViQVSH+EDoo548mKZkxAk4smJR8CvypnjDBnJ5a1QFCHx0WLFmHdunWoqcn+dtTUlP/JrlQ6Bb9OMVgstW7O7iRWVBACfq8LL0rehJPim/ChY61Yczn71Nl0OpR0uBFKZf8/Mp26eCwJzIZAUnRvNCiTsfKdCXDKazYsZ3tu2dLX9R0OHjxohjdOJg5mC3Cq56svRESmGVhIYLYE9M2qZc1C/NtDN+HpLauQtM/+v3E45cZAjAJhtmPD83NDQBdt0u9MluISKLoFYXh4GLrq4mxuBp2n2rZt2zV+BgcOHICGL6r/wY1KPJ5DU22WxvT6/Hl0MMvSLDeXMYFwtRdv3bEeLQsa8aETF7G27fKMF38KGtUIhJliuYxvl5K6tHhkxMG8pDpdhp0tukDYt28fPv3pT09pSeZs/NVC8Mwzz2Dnzp3mIeoQ+MMf/hDr16/HI488MuFpx44dM3MfaLztBx8cgdfrnXS9hgkrmcZGFQhBCoRpEOOhUyGQkuWZW1fMw7/Jmg679p/FYydb4ZmBb4LfVs/4mqkA5zEFIRANUiAUBPQNGim6QLj99tvNh/tsLAiaDGnTpk1XLlWjEjSsUcMmGxsbr2wf/0GXeP67v/s703Kh4uBzn/vcNRaI8cfm4rOKFjGa5aIq1kECGQSiLgfekkiHC2JN+Mihc1jV3Tcta0J3gA6KGVC5oWgEaEEoGvprGjZkrr4sn1o6deFyueDxTLx0rQqSjo4OE4amY1ZHxXwuDqILQn29pR1Hg9FrBqAc/xC9BptxdV5cF6maqNhkFU2bHKxraepNmJiBhcWuK3WOLsapDqATtTXWjvYhWxtaj/YiWQZepB5JyHXz4RY8erwV1eGIXvakJS33/2uxe3HGv2jS47iTBApFYNmONJ74g8achr0Xqu/l1E7RLQj5gllbO/mqdGp10AiHQpZohTjdbJvTiHvkR5/bGtb5U5kbbx8OXIO6wefBhxbOxYaaKjhkLAblofb+wBB2d/UiNsUVLxfKuR9ZNBfLpC6VGZejMezuHcChnoErQsHjdODhRfOwo74GCenL4UE/Xu3oRljaGyuLa6vxhNTTHo7ihUudiM9AqIzVZYXfEbnmt29eg5bmOjwkIuGmS9lXMtX+xuFEwKCDohXGjn0YIWAGMBBG0QmUrUAoOtkJOlCetpprL7SpyotPLZ6PhV63KRCS8lB+Vczd43NVNssxv71qKdbV+JCQN/aYWBgWyfHr5e/5Hjd+cO7SDfNFLJMH/u9KHQs8LoRHH+iLpY5NIhp+4nbh5UtdZh13z2/GLy+cg/OhCLzi7f/LIgQ0muQV2a9FBcSHRaiogNgjCYhKXRyMjYZaZNqXz8UPFjbirKwQ+WHxTfBGJAPNBCVs+NAfnDwr6QSncRMJkECZE7hqBy7zC+Xl5Z+AWmXun9dkPuwvygNZM0deX+QQ3Dm30RQDEXmwf6+tC3914hxelHh+tTjc19wAtUBMVpwOOz60YI4pDrrFavD1ljb8tdSxWx7wHhEBj0gf6kUsaFlV7ZP01sBP2y/jexc7zc+rRKCMlVulL7saa832D4v1odyK+ia8c9s6fPmRW3BwxSKkR6djxl9n0FEn1hV+FYxnws8kQALMQlGwe2A2TpgF6+QsG9oiD/dH5eHcL170r/f0mw/j66usEr+QXQ115uY9/UN4zZx+COKnrR3okDdcfcDfLA/sycrCKp/5xq/H/LyrDwdEXFwcCuDZ9m4MJxJodjmxS6c45GGoz0Od2VEx4lJ/hXEVL6mrxsfFenAuGMarnT1IlYH/wbjLu/JRrQmdCxrwvfu34rs71yMoVprxpTtQI9c+nsz4vfxMAoUnkDIzKeqdy1JMAvxWKBB9jWKI6ZOqTItPHsoPizjQh/DT8rA9PuSf8Ernib9As9tp7jsmfgljwklN+52REQfOJV4PvPLmm600y7SCR9rRqYmL4vw5VnpCYfTFEqYoGLMSnPQHTaHw3+Xt+WMiBlQwnJBtaoV4WKYfauT3sx09GBT/g3IvCacdB3auxj89vBOHli1ASrw708IxaFQxvqbcB7/Eri/OREmWGLHs38KW6F55daKcl3q+U8TBltoqHBsOYo/4HNSJH8BERQWEXV7t1WFweJyjoAoFdTLUUi0Pba/DgbA87Ccqc0brVp7B+NVpDK1jbFrDJ3VoeVMcEp3S5laxFjil3W9IJMk+sW7cJeLgnqZ6PCcWiKN5Wvxoor4Xe5tpTRC/hO/Jz/ED5/DQ6Q4Ehya32BS7z2y/8giI9r/y8lB5V2+dK6ZAsM5YlGxP5so8/4Myl5+Qp89LEoWgD/ZsAkHN/lrUmCKpUEb+kH812mHM2VAFhIY/ZitueeBrUd+C8YtfaW1jf4+drdMG/yW+B6+LYNBtaqlYJI6MT4gPQ4v4Sbze1YMaERzrxUnRJ9MbfTI9clymPuIT+E/I6WVT1M7y/vYNuFS3GsO7axGmRiibsS2HCwkzqMYSw0iBYIlhKN1O6HP8jjkNWCjz2ofFD+BiIIQamQKocY5MI+iVaWRCq0wrBKNxxOQBrQ9xFQEeib8fK5qroHF0WkH9BfS4bEUf4lrs0rZLHupjRQWAazQpgtYxvow98J3S5uMS1VAtv78rwkEdK39/zVIzVDIqYkJ9IJ4Sq8MLsq8cciKMZ6CfDQlpTCXdSMbrEQ75cKw/hKArKOCuP5J/k0DxCHiq9X8zS7EJUCAUcAT0gVZuRd/0t0geAS0b5c38r7euNT/rpVaNmvl/dekCbJM39K+caEGv+BkE5O28UXwW1snxh7v7zeMdYhVQkaGlPRKBf3S6wdxw3T+dkvwnKjZIna5YKP4Kl0SYaKmV8+eOTj+0inVArRTXl10yFXJ7Yx1eEMfGAzIVctv8OVglTo9v9w9it+RP+NyqJXhAHBxfE7+E0AxSFl/fnhX+Ngw7UgmP/FQjFqlBNOoUNgZSwzEk22Syl4UELEZAg5BUvLMUl8DV16/i9qPsW9cFpdSxrhxLv/gSqP9Avyx6FZS1LfRHcw2MBQWor4GKAp1UCMhD9+KoQ6D6BSwQkaBli/gDrJapCi1H5IE/5ry4rK4Gjy9biG0yhTFWOiXqQNvTBEt3SuSE5jJQC8Rt8rlBhIf6N5zyX5uYSc9dKnV9VKwHF0VgvCyOlCognHKefg/1iXXjYiAIv0RBqK9COXw32eBFMtqM8PBiBAaXYniwCZGIyxQHhlx8qiskf19raRljzN8kUEwCTkeaAqGYAzDaNi0IBRqEclXDaob/tiQ2GrXsX6G5UqwKn125BG7Z8QNJSnRsYPhKEqKnJSfByioPlsrb//9cuwwdIhjWijjQB/NpmaI4MOo0qNaJD8sDfZe88ffIA/wvJfpAow3CIkReFcvDry6Zj20iMv6vjatMAbJJnCT1neNtOf/s4LVRFC6xZjyyoNm0XHz/XBcGxMKgpUdCK9XZcZWsjPiA+CXMEwtEayh6pa/mQSXzj/huyBRCMl4tVoJqJGJeJOL2cZ4eVy8k1RtGrIPWg6tE+MlqBMr1O9NqnCfrDwXCZHS4b0oEAhNMB3Q7o2ZOAnUo1Lfy8cecHxzGt1s78VF5IGsGxfnyUNa3/mMiAL57oQND40IO1RIRkwd4X0wf5CNvu/rm/5ZMAagPw8NiWVgxmvhIpx3eE3HwlAiS69M1q4Vis1grnhcnysMSxTBWWob9eEWjGprqsFqmGvrFwfKpjssZ548db8nfaXHATHsRjzbIqqgylZAUP4NJDAOG7Ex3hcXHwpJXw06RAEZnJ0miyATKdrGmInPNaF4Xa/rH8204F5o43W3GCWWwQXMjaInJlMNEiyTViwVhiby5axjigIgMnTqIjAt91HO1jiWSgvmyvPFfn6tApwHmykN9gbkWA3BZ/Bt65bjrxYHW4xDnQ5cIioQ8HK/fr28qc0RkuOWYfqlDnSmtXgyIZSDlEmtBHSJhsRbEVRRMbc421hZA7IzfnGKx+nWyf5VJ4MHtwP/8RAMXayry8NOCUMAB8OgTrYLKjZz8BsUXQH8mK1rHqb6hCQ9RS8JlmZLQnxsVFSgTiRQ9T/0duqdQx43ayPd+XZBKRUEqWYV4pH7Un8A2rQe9ERHx0xaa1jn5vi7WTwLXE7h+yvL6/fy7MAQoEArD2XS4qTB9UCCy5d+MDW6xEKg/gUQghKuQTIgomOFlx8XvIBq6mlxqhtXwNBLIOwF17GYpLgEKhALxH3G4qSwLQoHQlmUzGpqY1rDEaJU4G1YhFtPQxNldamowglQnHRNnR5FnF4KAGeZouhwXojW2kY0ABUI2MjnermpYlxtmIYHsBCQKQZwNY9FaiULwiX+BB+K+kZOiYY0JtR5E6ZmYE6CsJK8EvG6ZUOM8Q14ZT6VyCoSpUMrBMWpBqKFAyAHJ8qpCAxPTaYdYCyTdseQ7TsTFx2AWUwjZ6CR6wkh0T+7vke1cbieBQhPQEGeGORaaemZ7FAiZTPKyRW/2agqEvLAttUpNZ0MRBUj5xNGwXvwK3BKBICJhllMIWTnIglZpmVpgWGNWQtxhMQLVPgoEKwwJBUKBRmHEgmA3EwqNZRgsUNNsxiIEzHUQEuJwKNaCSKhGfqv1IP9+KTERB9G+ygmvtchwsxszJOCQmdg6EQh0UpwhwByeRoGQQ5iTVaUCwSd+CLpI0diKg5Mdz33lQcAwRAQkfDJ14EM8Jr4FYUl1XMhLC8dh65DFmFhIoEQISOZ0VHvzL5xLBEdRu0mBUCD8qoZrRBqPLGNc0EdEga6QzYwnoOsgxCTdcTwm4kB/EkX4wpPbLN4u6y2E6Jg4fmz42doEJJ8ZqrzyXckwx6IPFAVCAYfAJ3c+4xgKCLygTalngYYmyvSBmdlQUh/LOghFLRLWmGRYY1GHgI1Pn4Cu+l5XxW/K6ZPL/RkUCLlnmrXGWrGd6RQDSxkRGF0HIWZmNvTecB2EQl25uVpjZ0hECq1VhWLOdnJDQHMg1PgoEHJDc3a1UCDMjt+0zraLyUxXN8xciHha1fDgIhPQJEappAsQa0FInQ2nsQ5CoboeE3EQ644Wqjm2QwI5I1DjlbVTuFpTznjOpiIKhNnQm+a5dpli8DD5xzSpWeNwnUBIpdxIJ32IReoQjcjntEYhWKN/43thyIqUaREIk63oOP54fiYBKxGo9eniakWenrMSkCL2hQKhgPD1pm8QZdwO668WWEAslm7KZshS1OpkGJd0x5EaMdlb3/RphjUOJSzNlZ0jgWwEGmoAO3PGZMNT0O0UCAXErVMMczSGh8XSBDQ0MWWugyDLKIs4iMckNNGCloKJIKb8MRh0TJwIDbeVCIHGGnH3pUCwxGjxaVXAYdAphjlOJksqIPJpNGWDkZYkRjFZRjnslRUT3bIOQmk5lKpjYlx9D7ha4zTGnYdajYDmQGCIozVGhQKhgOOgN32jTDEwWVIBoU/S1LXrIIizoVgKksnSnftMDWhYI9dbmGTIucviBNxOoLlOEsrRB8ESI0WBUMBh0GyKTaOhjvHC5tMr4FWWQFNpWTo5qYmMGsRa4BFnPslfUCJTCFnpykIL6piYTJb6hWS9Qu6oAAKaA2FOg4MLNVlkrCkQCjwQPpfTjGSI5GgZ3wJ3v2SbsxkOcTQUMXAlkZGKgtKaQpgMfqwrLGGNXG9hMkbcZ30CddUiEOr5WLLKSHEkCjwSbocTdTLNMCgr7LHkl4C5aqKsmBiPVcn0QbVEIYhAKMMXbA1rtHWESt8Kkt/bgbWXAIF59YBHzQgsliDAkSjwMHhkiqFeBEJrgdutpObshkfyFEhIYjHXQSgg8Jiut+BnWGMBkbOpPBGY1wC4XaXrB5QnLEWrlgKhwOidDocZyaAZl0t+3rvA7LI3pzDlSyVZjYgkMYrHJAIh4agMvsNRpBjWmP3W4J6SIaA55JpqDWZRtNCIUSAUeDA0kmGh+CFIUB2SdFScJX1xZkp5xNlwJDQxlXRWVPZAM6xRphZiEa7WOMsbiadbgIAYVjGvUaK8GMFggdEY6QIFQoGHQiMZ5kksj6plOpxPH76umJhKSeKiRI1EINSKtcAhf1s/u+H0r/TGZ8R7I4hzvYUbg+IRJUFAc8gtaGIEg5UGiwKhCKNR43SiSjKFDaboqDg1/OJuqEmMEl4kTGuBx4xAqOQpGiMh946ENSYSZeh1ObWbgkeVGYF6iWBoqqVAsNKwUiAUeDTUglDrdmOueOoykmFy+DbDaUYfqLNhXKIQ4jE6L40R07DGSC/DGsd48HfpE2iuBXwePpKsNJIcjSKMhltsaUtEIJwJRumFkMHfBluqGuGwrIMQL611EDIuJU8b0pGRsMY8Vc9qSaAoBBY0ikDw8pFUFPhZGuVoZAGTz83qhLPM7QKMoHjf57OlUqlb10GQNMeyDkI47CvJdRAKRlrul1hbELEAp6cKxpwN5Z2A+mQtX2CXCAY+kvIOexoNcDSmAStXh2okQ5M4Kjrlf0WsQj0VzRUTkxqFUINwSJ0NXUjJOgjUSze4y4YjSHWEb3AQd5NAaRHwuoE1i8V5W74bWaxDgAKhCGOhfggNHreZUbEnWWEJbsbWQRhdNdEUBVQFU7sLJQ1kWnwP6Jg4NVw8qnQI6PTC3AYn12Cw2JBRIBRpQOrEUXG++CL0RMtfIIysg+CVdRA03XENYhKaWMkRCDO95eLdst4CV2ucKT6eZ2ECi5uBumpZypHFUgQoEIo0HA67QxImOXCkSO3nu1m1kiDpEzEwug5CVFdNzHer5Vu/LZmEIWGNZFi+Y1zJV7Z0nmZQ5OPIavcAR6RII2KTPAiLZZrBLo6KybJ5nTYkQ6RLog9qERVnQzNvQZxzirm4xWJtst7CQDwXVbEOErAUAYd8Raxc6GQGRUuNykhnKBCKNCjqjLOsyot6px19shpfqRZzxURdB0FCE6PhOkl7LOsgiPNh2WgeCwxMOhhD+nKYDpwWGAt2IfcE5jcBS+e66KCYe7SzrpECYdYIZ15Bo1gQ5svKZaUoEMQgiHRKshtqaGJIQhNFFKRSMq3AklMCut5CTKIWogxrzClXVmYdAup/0FhH/wPrjMjVnlAgXGVR8E8657ZU8iEcC0QL3vZMGjQMWQchIfkbJDQxZIYm6uJIFAUzYTnVc5KDslqjRC6wkEC5Elg2zwa35oVhsRwBCoQiDokmTFoj0wyvDwYRSVrXg89Ie8SfQHwKYhKBENFERgbN3QW4bwy9J0QcxOOMAy0AbjZRBAK6guPyBfQ/KAL6KTVJgTAlTPk5SP0Qlno9kg/BZjmBYJd1EEbWP1BhIOGJXAchPzfBJLXGxO8gyrDGSQhxV6kTmNcAbFjqYv4Diw4kBUKRB8bjcoofggOXLZEPQVIepyQ0MVqHoIQlJuJuhtUV6f4w4knYJKyRtoMiDQCbLQiBdUvof1AQ0DNshAJhhuBydZpTln5eI3lGjwYiEu6Yq1qnXo8GJkKWUk5JaGIoVC3TB7ImQpJ+BVMnmJ8jI+0hxIdKN7olP1RYazkR0G+Z9Uvs0O9AFmsSoEAo8rioo+I68UNw9/sRShTGD0HXQUinnEgnqxCN1MmPrIOQknUQiiBQiozfms0HJKxR8h5wOKw5POxVbgg01ACbVriYICk3OPNSCwVCXrBOr9Im8UNoEG+dfAsEQ5IYpRIeJON1Yi3Q0ESKgumNVP6P1reqpEwtxGOFEYv5vyK2QAITE9DphfmNjF6YmI41tlIgWGAcqjwebK/2ojMah6zHk9Oi6yAkE17xJ6hCPFor/gVMYpRTwDmuLNHD9RZyjJTVWZCAZmJfu9iAV5dxZLEsAQoECwyNhjtuqvLglYFAzqIZ7NDpA1kHQYRBLOoVa4EFLpRdmJSATcIaE1ytcVJG3FkeBOTrDhuWuTm9YPHhpECwwADpwkbNXi/mSFbFS+GZmpY16bEkLhJnw0ikWoSBRiFwHQQLDO+UuxC/HEK0tzSSZk35onggCUxAYMV8YMVCN8MbJ2BjpU0UCBYZjRrxQ7hJZHV7ZDrTDGKnk3UQjLRYCcTZMBKWaISkiIQcT1NYBFFZdyMdkYiFzjDHrqxHmRenBNTPZs0iA9U++h9Y/Y6gQLDICGk0wxoRCQ5bALEbxDvqOgippIQjxutFFFSJjwHXQbDIMM6oG/qFGesQ6wHDGmfEjyeVFgGP6ILNEr3A8EbrjxsFgkXGSKcZFlT7sEASJ7WGYxm90tDEVFIsBAlxNoyIMIhI7HCaKY8zQJXghrRfphVEILCQQCUQWC7TCxuWc3qhFMaaAsFCo1Qj0QxbfW5cFIEwNktgg0dC3kbTHUfF6VDWQWApHwK6WmNCrQexsREvn2vjlZDA9QT022vDUgO11YxeuJ6NFf+mQLDQqOg0w0qfB64BycEvCyNFVRCYUQiyoglLWRKId3O9hbIcWF7UhARqq4DbN7k5vTAhHettpECw0JjoNMPy2ho0XHTh1EBdxa6D4PUaeHSVDVsabPDJHRqVEM0Tgym81Z5CZ9+1b9qCDKtkudjHl9kwT87ThQ9PyrFvXEqhq//aY7MNtayZhZ1Lbbh/kQ31TgNhae9Qn9TRmoI/eLWOeQ0GPr7ajrkeA+2hNF6TNi50Xxt1cqf0e3OjDT+/kMSlnqvnTtS2rtZoSFKk1LVVTHQot5FAWRDYskL+vy7i9EKpDCYFgsVGyifrom+tjeFkt8U6VqDu1FYb+IMdDuxosplrU2hCQa8YUHY223DHvDS+eCiOi+MevLtW2PDZDQ40uA1TSMjCmNgp5942J4UvH0ni/OXJn74qMD620Y5Pr3TAI/8bIiIO3FLHrXNs2NqUwlcOJjAUSMMjouD/3ObA5nobTgyl8BHJIb+h3sBf7k1jWPZrWTPfht9e78BFERV9gRsDMx0TB+I3PpBHkEAZEFAhvmWFXZIjSRIElpIgIEPGYiUCmjRpZ7Mddb7KfHDcucRmPuCDiTS+cTKB//vdGP7xaAIBMQ2srDGwa8HVW7apzsBnVjvQKOLg2EAK/+/+OP6XCIjOcBqra234JXmbd7l01jN7WSnWh0/Il5aKgzc6k/jTvXF8+XgCfmnvNhEJH10zMr2zSMTARhEHR6Sd//V+Au92J7G+zob50ictXhEQnxTrglO69/0zSYSkD5OWsISziu8B17+YlBJ3lhGBhU0i3tdJpJZMpbKUBoGr37al0d+y76VOMyyucWJ1TeUlzBFtZMZIv9+bwvfPJfHSqaRpLdh9IYVz/pEHbpXj6gN/kzzAl1YZUCvDd+WhfLQthffk2KfEvK+RorfOsWNBffZbRq0HO+aIw5RMK/RH0/jOiSTOdqXw+tkk9sjUgbZ0+1wb6kZFgD7MbbIxLEOj0xBa3Npn2Xa/WDJUUPxnSxInOm5gtZDzkiIOYsHRSsya+A8JlDeBrSuAuY10TiylUaZAsOBoaXzwnWIidzomf9BYsOuz6pKmg/65PKT/8hdxPHs8ab5dq2hY2WyY8/6aAOrs8AgTNVeuFguCPrC75W39wsCIgNCH+H55yMekLp2aWCFv+dmK1rFNpiO0nBhMo0d+tGg/3pY6dHFN9WtokJ/Lw2nT72CViIXP7rDjznl2dIofgrarVohfWWnHAfFbePFc6oZWgeSALO0tKZVZSKBSCGjugx1rnXC7KRBKacxp67HgaOk0w7YmO+bINEPHcGX+h1JfhF9ZLw6B8nBeXSvrUMpz/J9OJPBOy1WBsMgn6kBKmzyog/IzVgIR9SVIwyvWhsleWPTNX60HWnQKY3wJygyPWiHUQlAvU6YXutP4Z5nq+KhYCtbLVMMH/Sn8TKwFcRETT66UqQy7gR+dS9xwasEQlZMScRAViwULCVQKgTWL0tiy0gubqnKWkiFAgWDRoarS1MuNYXT5JTlSBT5L9HtEnQCbZW6/Wh704pIAFQRNIha6R60FKhq0KJ/xc/mKaywZpf0G30dj+6+31Yxn7hGRoOVUZwp/L1MP6tfw/7d3JsBxVeee/7darV612pYsWYuNvOLdeF/BC/sSwIkDBJI8kiH7MpNKZaZCJY+kkpeqVGqmIMkbJi8TZl4eISEDhJeAWUIeYJaw2WBj4xXjTd4kWUvvrZ7vu3LbstQtS+5uue+9/1Mlt3SXc8/5neu+//ud7/uOWhliIiquERGzQqwJv9kVx06xOlRLpEOjtFHbu0/aeer01EhvDYCu1hhpEQXDQgI2IjCn2YnSAJ0TzTbkFAgFOmI6zbC6Joj/aImjO2y/YWoXk/5/ezkOfYBPlCmGz0t0wC3jxXlTTJX//I68ucsTOOUHoFMJLrEE6ANbS4ngUmdBLRoiOViJnVYGWkff4pU6dPpChUdbH3cQFQah0w6IxtSCfPFtFmvCc2LZWDy+N4pBr63Wiw8k3PKf3oyjPSUS4onesMbeZva9HH8nAcsSqK0SX54ZXuY+MOEIn+f9yoQ9slCTa8s8mFHZ5+lkob6l64qa/CdKqOB0yUcwWqwHoXASXTJ1sPmjHjx/WHwS5KSl8rauS8Um5cG+U8INdVuTTEeUSwKWVJkgb/HqzKj7DvfJY5Dan/rUh/9JuYYWtVT0da4eLVMbGjKpIqQzzXSAWyInNkiEg8ws4A97EojIlMR1jU4ERKj8QqIg/nIggUslj8OS+iLDiVGvETkYRLDVntEp2n8W+xHQCbz5k4GGGq/9Om+BHlMgFPAgeiQnwlVj4yhx9TeAF3Cjs2iamu6/PMOJHy5w4VNiutfcA1o0hFCdBfUvNf2nft44mjScETUHwmUiLFRg6IN7vkQT6MP9uDz8956ejlBLxKUiPJY3FxnHaL2aoOglmRbQ6QgNi1wgyZL0Gur/sFLCKfX3HSJCjnfo0eeWlWIt0KiFx/cnsE2iJ3RKZLRcu0NSJr8veRo2SySGCpBamRbRdqFb1tfQsMZzq+FfJGBpApWlwLKZHvk/J6Y/FtMRsJ/t2kRDZGRWFA+58WUR7DxpfQUek4frU5Kd8EuXFmF1rdPIb7BfkhCNFXGwSMINtbzckkDHaavAYXn4v348gZVjnbh7SjEaJOSxTL6HVsnfWjTcsU2mKrTodMD3L3MZ+Q7+xRPHE9t6oyTekOyM+5p6DIFwjyRcml7ZgzqpRxM1qR/B02IJSE1dGBXJP5NEPHxKch5o7oU/7+61YqjYOCmWhskSNbGgrsjI2aDCYJ9cX/dp1EI0bA+hl+LETxKYNwmY0ugRkawqmcVsBCgQCnzESr0luGZsB/a0eZDosfZ/MrUMvCjpjf2uuJG8aI48pOdIchUtGrb4nEwz/GGn5Dg47VegD+5fbU1AH7vLqp24salXGGg2xIclomDjrrMhh90iPiJyAbesgKn7UyUoUxj/490EvjAdRnSCUYe045Qc/5DkVnhDpjf6FrdYOa4X64E6SD4s+RL0fC1ROf43krfhP8+SMEgRGmo90MRLb4ljY88JEQeHGNbYlyN/tz4BnQpcONXFzIkmHmpHVL/ZWAqaQEt7F36wReLubRLyqDKopsqBybKmga7F0C1CYJdYC0529kYO9B8s9R2YIhaCOpkaUKfE3fJmf+yUrJIYP3uk1qlv/sZb/QmZmuh32+v6D9Oqe6MmNORRr9cqb/8pMZKqSespletoUf+I/usolIr1oVH8J1pleqOtW/wOgpKTYVsrwscHLuFtVMJ/SMCiBBZPA/7LhjJUlMs8A4spCVAgmGDY4vKke2J3J/5tVznnsE0wXn2bGD/SjegHHWL96buVv5OAtQloJNE91ztxzdJRjF4w8VD3TuyauAN2aLomTlpY7cJY8UVgMRGBcBxJcUykODDRmLGpOSEwtVEijmYytDEnMC9iJRQIFxH+UC+tDj5jS91YOjpieNYP9Twed/EI6CRE7GgI4VN95jkuXnN4ZRIYMQKaP2ThFF3DxDdi1+SF8kOAAiE/XHNeqyZOuqLOSStCzsnmp8JkVxQOsR6wkIDdCDTXAStm+zi1YIGBp0Aw0SCO9rsxuzLWG1dvonbbrakOcfuNiTgIheh4YLext3t/1Ql46XRx9q20fli2HcaaYY4mGuWSkhJcNy6Mv5+IorWbiUcKdeh6ToYQO2Lt9RaKJaK0dlQxJjeWwOeWnBGSberAsTje3xdJu3aIR8JDx9e6jJ9isUF3SnTH5t1hnOoauogq9UmWzQlujCp3ShhpEi0nE3hvT0QWzDobiOWSDJrN41xoEJ+dhIS1antaWvvEtcpNUx4oktj8ErTLtfceikrbC/VOMl+7Zo4H1s73y3ol/H4y3+gNbDEFwkAmBb1lTKkHC0eH8UywJO0XcUE33gaNc4hHYvKIOCb2eWhZrdtuSSf9ybVluGFZKSrLJN20PPA1h0VbZwL/vqkD//fpDkMwpPqtD+QvfKwSy2f5JU12kZF1UtfSeGN7CL/5Szt2Hjh/COiMS9y4R+qY3OCWtTZ6w0y7JfHUxtc78asn2xGSJFW69YZlAdx5dYUsle6AipLNu8K4/9FW7G/pTXGtwuaemyqxco4f//OJVuz86PzXTvWDn4MTULYrZhahqpzWg8FJmWcvpxjMM1ZGS1WZX12XRLmXX2yFOHRhEQfdYuGxcrl6sR+3r6uQN/liHDgawytbg9hzKIIqEQu3ra3A1YvOLoyhDmsb1pThyoWl8Eoq6q37wtj0brchKJbO9OHT15Yj4B38a2i0WAw+e12FLBfsQSTaI8IiiHf3hAyxcdOKMty2rszAHRALw9WLA/CJCPnXje14+d0g5k/1YsG0s6sIXrnQjzXzA3hzRwjPvC6JKlhyRmBus0Yu+Gg9yBnRi1/R4P8zL3772II0BGplZaIb6sPy5nbWtJrmMG4aYQIOWbFJHRM1i6JVi08e8qvm+qEZJfcejuIff30c9z54DPf+r+PYtjcs64Y4RAwEDLGgDBrHurDmsoCxKudLW7rxrQeO4h//9wn8Vh7gamVZdKkPCy89+wBPx033z5nkMZJS/e65U/iv/3wM3/vVcby9M4RiWS3rinkB1FcXywJfTtRUFkuCqwT+8mqXWA16hVp1Ra+hdGK9C+uvKJephQT++LcOWWDLwgOVDmQet3lkRmHFLCcqyxm5kEfMI141BcKII8/+gi5XMRaOcWKUnysDZk8zdzVEDwURlYePlYsKgLFVvQ/cDz6KYN+RmJHnoeVk3JgyUHE0bbzbeFgrB50a0Ae3Zpzc9J6knJaHsv48/1a34YegD3g9PlNRs/XUJrcxjXFCQkb/9k5vXgn1H9j4epex7LfhC9FQgpYTcRxvj0N9Fa4SS8Eldb3z4K0y9aFTDjetKMWE2hJDHKjvAkvuCCyYksSS6X5GLuQOaUHURIFQEMMw/EbUiFL/eEOIVoTho8vLGT3tYfSIY6LV30m1fymnvopSp/EwVqC6WmaNCAf1YteHcUpElPvF50A2BiM9OHz8rKDtlgiP9u5eMVUl9ehURLqi/g2pB/0RESH6kyoqStQ5UkVG/RgXwiI8nnqtC1Hxb/hPN1Vh0XQf3tkVwoubg4Zg0GmO597swp83daWq4GcOCATE5WDlzBIE9BcWSxGgk6JJh1OzK86rLsHEo2F8YIOVHgt5mBzioRc/Im/H8hC0egmGknhVfA4aqsvljdEnD+IKfCCOfmopWDrDZ/gW6MO+bnTvV4uKBRUN+iCP9TGuaHbJyOn1MKplWsAvfgga2dC/6Lk6naFFHRv7Tt+oU2RKrPhkSXDd98e/dWLH/ggmiPVApxp2H4wa0x43rypDuxz/xEudRlvKRLhorUFZM6NvFIRxIf4zLAJLpgGXTfWhWBdFYbEUAY6oiYezzOfBNXWd2HvKLV+eNAZdrKFMSFhj/Jg9TNb6MP3Ty52GAFgmUQk3LCvDtUuAsDgPviw+Bstn90YqaIihFhUG+uAuEtXQ10qgD+fU3x0iDIKDLIWdWhBLrRR9iz7kU9v6io9t+6LQHy0qUL50SyWaxBfiV0+24ZBYMb6xoQpzJ3lFzCSxdW8EDz3VLtvPWib6XoO/D06gQvxRr5hbAr+fvgeDkzLnXgoEc46b0epeK4Ib844H8XpLwMQ9MXHT5cnksHhYY//R0Yfpf/99K15/PyRhhyWGD8JrYlVQ/4TV4pCoD/Rjp3MPqFVABYKGRuoDPVX0wa1WAy1tnfGM61XouV2nE05plIKeo9MTWnRKQ+vRY463pX/Ar1vgw/VLSw2rx5MytbD+8lJctahUrAxhIzRyrUQ0RGI9EgrZZvhGGBXznyERUOvOqlnApRP8IgDPju2QTuZBpiDAUTXFMGVupM/jxnX1EvboOzu/m/lo7sk1AV1voeuEfdjrA/m6pQHcuDxgTB388rE23P8HFQthzGr2GA/skx1x7JYERFo0z4BaF1QgzGx2n7EazJoozosSJqnlo9M5CvR3DZVsrHGdtQzItILmMlDRMW60C5dN6Y14UOvDpPoS43pqfdhzeOAYaGKmj0vUgk41/L//6DSiJlIOkRrF8LBERIRFHExpFCdINWmwDIvAhLHAdUu88PnoezAscCY6mBYEEw1Wuqaqcp9U5cHSMWFsPFAsX6T8pkvHKR/bHGEJa5TIBTsVnTrQqIE7rqwwMhVqxkKNCJjaJFk+5U1dy18lQuGIRBRoOSjWhh0S7TBvsteYjtDoA7UqXC8iQy0OLa1xQ1zosWOlXp0OmCYP7EflAf7I8x2GT8NLW4JGBIIKivWXl4lTIjBGQhevXdJ7vVe3BbErTbKlm1eWGmGWDz7Rhnd2ho3ESTrlof9DNPeCWh5cogzUF0J+ZRkGAZ3aWT3HgbpqvwhFfucMA52pDqVAMNVwpW+s2+3G+qYItrZHcODU4DHl6Wvg1mETkCdK5GAQkdOe+MM+36Qn6Jv80xIpMEHezpfM9OMTq8tx88qk8Sav+zQBkfoonHZBMMTAQ5ItUR/uahn4yi2jDL8EFQchcer8t2fa8ZEkW9IytsqJBZLYyCupm3XqIlU0GdO/bjyFz99YiVkTPUZYpFoQ1K9h35EoHn+xc8D0gAoQzcfwyntBPCnt0RIWIaBtny8OdZ+9rhJdp50i1emSORFStIf2uXxGUlIql0K/e1isS8B57733ft+63bNPz0okN4IfIWxuK5Y3O84c5XvkkxLWGNvbZZi+832tQqtfnQq37I4YjoX6kNawQrUYPPGSmO2f7cDh09aDVLuPij/CHkmqpPkP9M1TUyRvk4yKD/6pHS9tCZ3xP+iSCImA1yEOt8CfX+kU4dBrhdA3fbUQaFhjr/Ojw0jrrOGLv/73dvEnODdzpVoHmkTAHDgWM8TDsbaz4RPqP3FS8iloPRp6+cjzpyT0kQIhNVZD+RwliStvX+NGc0M5fQ+GAszExzii0dOxRibuBJveS6CzO4hfbE/g7y1+w3xKLvkh4JAnVmJ7G7pb7BG5MBhFXVtBIm4NoaQWAQ1fzFRUHKh1QP3ZNGRR10/oX3SfHhMSEZGyQvQ9Ri0P6s+gRd/6VXRcSNGpBW23WhVYhk5AZxNuXQ586upK+H2MXBg6OXMeySkGc45b2lYHxFno5oYObG+PoSPkSnsMN2ZPICJRCzGbhDWej5ZaA4ZaVDykIhIynaPTFKkohXTHpDIxpts3nG0artk3NHI459r52KkNkLU2fPB56Zhoh/tA9DqLVQios9CEKj/WNwbFlMs3o3yMqyMqZu+WkC2nFvLBk3Wah4Bf3JtWz3WidgwdE80zatm1lAIhO34Fd7au07Bc8s0vqOZKdfkYnKhmTBQLDQsJ2I2A5jzQhbd0RVkWexCgQLDgOJf5vZIboUcWczrXecuCXR3RLiW7o3CI9YC2mRHFzosVAIHJ9cBNy7zMmFgAYzGSTaBAGEnaI3QtIzfCKB/W1YYlZnzoc8Qj1DxTXkYdE+OHQwjZLKzRlIPFRueUgFcMBjcsdqJ+bIBRCzklW/iVUSAU/hhdUAvVDHhNgwvTR4Uu6HyedC6BpOSYUIHAQgJ2IqDxIqvnAstmcWrBTuOe6isFQoqEBT8DsoDK7ROSqOJUQ1aj6xD3+6RELmgWPhYSsBOBWZdIWONKnyzlLKsysdiOAAWChYe8N6rBh9vGhyWt7dlkMRbucl66FhG/g+BR5jzIC1xWWrAEyiTNwTWLilFbXcp0ygU7SvltGAVCfvle9Np1jfZFY0uwrCZ0ZqGci94oEzWgSFdrPBxMm7THRN1gU0lgWAQ0IdLVC4AlM0qh3yEs9iRAgWCDcfdLUpNbGpNoquAc+nCHO3KwG2FZjpiFBOxCQP0Olk0HblwWgJcJkewy7Gn7SYGQFou1NupUw9iKAG5riqHMyxj+oY5u8lQECTomDhUXj7MIgcZq4JYVshx3lS7prXKBxa4EKBBsMvJOSTw/q8aHG+tDzLI4hDE31ltokZTKsr4ACwnYhUBAMijfvMKJyU2lslaFLFbBYmsCFAg2Gn4NfVzX4Maimm7wvWDwgY+dCCPKxZgGh8S9liKgi2ldNd+By+dyGWdLDWwWnaFAyAKeGU8N+Dy4c6IDE6voj5Bx/OLimCjWgwTDGjMi4g7rEVgpqZQ/fkVAsiUypNF6o3thPaJAuDBupj1L5xTHlPnxuYkxjA4wFXO6gYxLWGPoBNmkY8Nt1iRwaZPmO/CisjxgzQ6yVxdEgALhgrCZ+yRNxTxeVn28c0IIPjc99PuOpiMSR5FYDySzMgsJ2IJATSWwfoULl9SXMpWyLUZ86J2kQBg6K0sd6XK5ML/Gi+vrZWloJ5+GxuAKBg1r7O5gUilL3ezsTEYCpeKUuH5FERZML4N+J7CQQF8CFAh9adjsd6/Xg6sbS7CytkvCmWzW+TTddXRG0CPLObOQgB0IlEj+o6sXOLBmQRk8Ho8dusw+DpMABcIwgVnt8HJZGvrjE4oxZ0y31bo2rP5oWGOPrLcQi9KaMixwPNiUBIrkheDy2cAnVgdQynUWTDmGI9FoCoSRoFzA11CnxZpyH+6aCDTbOLJB11sIHQkX8EixaSSQOwKLpwGfutKP8rLS3FXKmixHgALBckM6/A6pSKiv8OEzl8RRXWq/RYmKZLVGaFgjcyIN/+bhGaYjMLkeuG2NFzWjypgp0XSjN7INpkAYWd4FezXNmjZ5tA+fmhC1XTpmdUyMtjEFdcHenGxYzgg0jgHuXFeCiY1lKNLMSCwkMAgB3iGDwLHbLvViXjDWg080heApsYcnf09XFEmZXqDngd3udvv1V8MZ71hbjHlTy7lCo/2G/4J6TIFwQdise5Lb7cblDR58rDGIYqe1be4OUQWJoyFEuu0hhqx717Jn5yNQJa4Gt69xYumscmjKdRYSGAoBCoShULLZMT4Jebp+vBsfa+qSxCnWfbdOtIeROMSwRpvd3rbrbpkP+NiyIlwxr5zhjLYb/ew6TIGQHT/Lnu2THAk3THDjyvoua67+2JM0phZicesKIMvenOzYkAm4JffRTUsduHF5GbxeyYrEQgLDIECBMAxYdju01OfF7RNduHxct0w3WOtBGj8aRLiFYY12u6ft1N9iWa35luUO3LKqggsw2Wngc9hXCoQcwrRiVQG/D5+eWISFNZKS2SLTDY5YwlhvQYwILCRgSQJqObh1hYqDcgQCMsfAQgIXQECSbbKQwOAEAoEAPj+5Sw4K4rUWH3p6zJ2XOXo4iEg7F6kafNS516wE/JI1eb2Ig+uWlUsiJIoDs45jIbSbFoRCGAUTtKG8NIB/mFyE5bXdpl63wdEtYY2HuFqjCW45NvECCKg4SPkcVMqy7poEjYUELpQABcKFkrPheZViqrxrUjFWj+s0ZXSDflXG1XoQtnb4pg1vTXZZCHjdwPWLHVh/eRnKygIAtQHviywJcIohS4B2Ol3fRioDXtw5GXAVdeHZgwFJT2yeb6HYsRDidEy00y1rm77qyoy3ikPi+ivK6ZBom1HPf0dpQcg/Y0tdQUVCmTguanTDqnHmSabkkIUWemS9hViMnomWuiHZGXgl79Edaxy49QpGK/B2yC0BWhByy9M2tWl0w2cndcNfHMQzB72IxCSmqoBLTMIaoyejBdxCNo0Ehk+gN0NiEdYuEHEgYcksJJBLAhQIuaRps7r8fj82NIcREJHwxEdeBCOFeTslw3E4jsh6CzQe2OwOtXZ360fr2gpOLJtVIUmQxDuRhQRyTKAwv9Fz3ElWlz8CvRkXxTehJIiH93nRFpQA7AIq6iERPSKOiacY1lhAw8KmZElgYp2uyugyFl7yeMQ7kYUE8kCAAiEPUO1WpUcWeFrVUIRyEQn/Z08ChzoK520m2RVBj4Q1spCAFQio4J3VDHz6SjemjC/jwktWGNQC7gMFQgEPjpmapktFz6sNoNzVjX/ZHcLuVu/FX0JZphTishhTLMq5BTPdS2xregIqDlbO0mkFHxrryuB0FrbfT/pecKuZCDiiUX57mmnACr2tSZnoP97eiV/sLMLWE96LmnUxcUymFrZ3IJGgQCj0+4btG5yAS7TAdYuBm1eWYuzogOQhYQDa4MS4NxcEKBByQZF1DCDQ3tGF3+7twUtHfIjGR/7LTMMaE9ta0X0iNqBt3EACZiJQITmPdF2FqxaWoaKc2RHNNHZmbysFgtlHsIDb3x2UEMgDUTxxwIuO0Mg6L8YOdCG6uxNckKmAbxA2bVACOqXQWA3cttqJxTPK4JMwRqZOHhQZd+aYAAVCjoGyunMJRCIRvHM0jD98VIx9bSMUpx2KIfJuG6LdiXMbw79IwCQEikQdzL4EuOvKEkxqKoNbHIFZSGCkCVAgjDRxG14vkUjgYFs3fr27CNvULyGp70b5K7E9pxDez8iF/BFmzfkk4JQZudVzNYzRj+rRpXRGzCds1j0oAQqEQfFwZ64IqPNie2e35EpQv4T8ZV5MtIWReP8UIhEuyJSrsWM9I0dAMyPeuMSBa5fQ32DkqPNKmQhQIGQiw+15IRAKhfDy4Qge/ciN4125NZs6xOEg8kE7IkfCeWk7KyWBfBFQq8HURuDjK124bFoZPJ7CySWSrz6z3sInQIFQ+GNkuRbGYjHsaw3i9/sd2HzMn7Mph4SstxAS6wFTKlvulrF0h3yiky+fLZaDZR401pZBc4qwkEAhEKBAyMEodHR0SLz/hZu0Kyoq0rZi165dePfdd9Pu67+xubkZc+bM6b+5YP9WXh3dsobD/gSelymHrnCWObtiCSS3taGrlWGNBTvobNgAArqewvqVRVg6U5KMlfmZ32AAIW64mASy/Fa+mE0vjGvH43E88MADePrppy+4QT/72c8wf/78Aec/++yz+O53v4sJEyYMGt6kQuLLX/6yqQSCJnqpKA3gk5MimFwexh/3O7GvXbIvXmBOo8hhWcqZ4mDAPcQNhUlApxTmTlRHRDeaG0oZpVCYw2T7VlEgZHkLqPPdhx9+KKupeXH77bejuLgX6e9+9zt0dXXhrrvuMvKlb9q0CS+88AK+9KUvoaqqyrjqjh078JOf/ASSzTJjKxoaGvDoo4+eOaf/gWqu/9znPgcVKmYsGr61aJwLzYEu/P7DLmw6OnwHRoeENTpEIFygtjAjNrbZxASqxWC4Zq4DNywLYFQlsyKaeCgt33QKhBwNcVNTE+644w5DIKho2L59O/bt22eIBn0I6hvzm2++idtvux2jRo8yrvrSSy8ZAmGwJuh55eXlxk+641QgmD0nu/axurIM/+AJYVZFF548VIK9Q7QmaMBkXBZjioQufIonHVduI4FcEyiWdMmLpgLr5su6JVNKDUdEJj7KNWXWl0sCFAi5pJmHulRsqHUgk4Ug0/Y8NCXvVfrECrO0wYWpFd14RKwJrx33IBQZ/BbtaQ0jdiSU97bxAiSQDYFKCV/85CoHls3yGVaDlKUxmzp5Lgnkm8Dg3775vjrrPy+BY8eO4fvf/35GK4EmIXrnnXegTopWKPrFWV1Zjs+pNaEyjD8fcoo1wZN20SeHODrGxHoQi3FywQpjb8U+eEqAOfJf85YVJZg6QcIX3SWD+hNZkQH7ZF4CFAh5Gjt9cOvDLlsTotajHv8+ny9tS9XCoP4PVivap+UNJZheGcLTBzvxt6MetHbLt22fEjsaQvRkpM8W/koChUFAUyU3yDoK1yx0YuVsH6oq/BlFfmG0mK0ggYEEKBAGMsl6iz60T5w4AQ1fzNY/oK6uDj/4wQ8walSv30L/xqmDozpJWrEou9HlAXzCG8X80WE8KQs/vXnch5iuDhkRp0yZWsgiutSKyNinAiCg2RDV1+CWlV7UjglIhMK5wrYAmsgmkMCQCFAgDAnT8A46efIktm7dig0bNmQtEPTK+qBUR750JVsBkq7OQttWUlKCKdUu1AeCeL2qE08dLsGuzTGE2pnzoNDGys7tUSfEJZcmceVlLsxoDiDg9wP5XXbEzrjZ9xEgQIGQY8hqPXjkkUegImHt2rXn1K4RB9FYdMhJlbQu/VErQaZQSK3TDkWnavQLd1WjG3OqgnghEsILklF59xHQimCHG6CA+6jTCZPGAVfO14RHflSU+c6EOxdws9k0EjgvAQqE8yIa+gH6sH7qqafw85//HHfffTemT59+5uTKykocOnQI3/nOd4ypB821vmDBgjP70/2iEQoffPABrr322nS7z2zbv3+/ZZwUz3Qqwy/q1zGqogw3rvBgyfQgnnkjiJe3JnHgQgyHSgAAD+VJREFUGJgHIQMzbs4PARUGo8qAaxc6RBh40TA2kBO/o/y0lrWSwPAJUCAMn1nGMzTPwb333osbbrgBX/nKV85xUFy9ejV+9KMfYefOnVDHQxUM5wt10kRLKjK++MUvZnRS1Lp++ctfZmyTVXfotMO4mhLcts6DpTOCePbNEF7bDhxts2qP2a9CISDGLIwWYbBshkMSHpVgQn2pkQwtW4fkQukf20ECKQIUCCkSOfjUtRAeeughTJkyZcBqbPpA04yHGpGg0wZaXnnllUGvqhaHSy+9FHfeeafxBZTuYLVaPPbYY+l2WX+bfFGrJWbyeDcaajzyhR3E829HsGkrZG0H63efPRx5AmoxuGwScP3iEjTWBeDzes55ERj5FvGKJJA/AhQIOWSroXmzZ8uybIOUTM6G/U/p7OzEli1bsG7duozioP85dv1b39w0DHT2FA8m1oewXITCK9ui2LQN6AjalQr7nUsC4laA+ZOBqxeWyD3mg9/vzeg4nMvrsi4SuJgEKBByRF8f6JpaeThRBQcOHMh49VdffdUIX1yxYkXGY7jjXAIqvkpL/Vgo88EzmkNYNTuIv22JGlMPp7roo3AuLf41FALlEoiwUEIWl00vwZzJPiPnyFBF/lDq5zEkUMgEKBByNDrPPPMM3nvvvWHVlikCQZ0TH3/8ccycOROLFi1KW6f6J+ibczgchoqT8/kzpK3Eohv1CzwQ8GPuNC+mjg9jzbwgXno3glfeB06eolCw6LDnrFuG82E5sHKGiINpbkwZ74fX07ueSs4uwopIwAQEKBByMEg6tXD99dfja1/72rAe1H//+9/x7W9/e0ALVGj89a9/NfYFAoEB+zXk8b777sPGjRsNkdDS0oJbb711wHF236BCwe/XqQcvJjeKRWFOSIRCGO/sAg6eABJc38nut8g5/XdJHoPRIgzWznPgsinifDjOL6mRKQzOgcQ/bEXAIQ8bJrLPYsjV6VBDETWaYMYMeeUYRmlra8PmdzZj8ZLF56RLVsuCTjEsXLhwgLOjVq9Ojps3bzauq1aE2tpazJs3T96aB4qJYTTH8ocqN7W4HJX0zK9uC2HzngTe3y9WmMyrbVueCTsI+NxArazArnkMZk90o77GD5fLRR8D3hy2J0CBUKC3gD7MGDaVv8FREXaqM4wtu0J4c2cUb+10oE38FFjsQSA1jTCpDjIF5cKUJo/k1/AZPkT8f2ePe4C9PD8BCoTzM+IRFiagFqBgMIR9R8J4bVtYrArAXsnOGE9YuNM27pqmQ540LokZ44tkysmNujEe+H2MSLDxLcGuD0KAAmEQONxlHwJqsYlEImjviODtnSGZekgYYuFYG50arXAXjKkAZjQlMWdisfgXeFFe6pZFlNy00llhcNmHvBGgQMgbWlZsVgLqTxIOR3DkZBhv7ohg24c92P5Rb04F0REsJiDglLXN/B5gWqPmLyjCNCOZlldyiriG5Uhsgq6yiSSQNwIUCHlDy4qtQEB9FYKhMPYeiuDND6L44EASHx4FOiUBUw/FQkENsYoCn4iC8TXA4mkOTGtySYZNSWrkKzFEAX0LCmq42BgTEKBAMMEgsYkXn4BOQWh4aVcwigNHI3hvTxR7jiSxQ3JdtXVSLFysESqRQO1SL1A3Gpg7sQizmosNv4KKUs+gy6RfrPbyuiRgJgIUCGYaLba1IAioWFDLQkjiI4+ciOD9D6PYebA3ZPJkBxCNF0QzLdsIDUvUNRHUUjBvshNTGooxusIjy4G7aSmw7KizYxeDAAXCxaDOa1qGgPokaObLaDSC1lNR7DoYxe5DcexrkSWojztwQjI3MiFTdsOtUwcqCGqrkhg/1oGZEyQssdGFgEwdeCTDYbFTzAiycBcLCZBAbglQIOSWJ2uzOQENm1TrQjQaw9HWXsGw93ACHx0H9ovvAqcjzn+D6LNeow7Gj02iqdqBxmonJtS5UTvaBbc4GTKJ0fkZ8ggSyAUBCoRcUGQdJJCBgEZEpKYjTrTHceBYDB+2JHCkNYnDku75SCsQkkyOchjs5vMombDhFDUgz3yMkRTHms2wuc6BCbVO1FQVy0+JrIHQ62CoabPpZJjhJuNmEsgTAQqEPIFltSTQn4D6LuiPTkmoaOgMxmVaIiaWhbiIhh4ca08aUxLqx9AV1qmL3oRNZhcOkg1cpgEAXevALWKgqhQYJ06FTTUONFQXobrSiYqAC2UBmTKQA1QMUBD0v3v4NwmMPAEKhJFnziuSwBkCKhh0WqLXjyEh1oQ4ukMJHG+LoaVVPk8lZQXKpIgH4IQKh1CvaIiJxSEmAkJ9IAqhaOpipwgAjSpQi4A6ElaVJmXxIwfqqhwyZeDAqHInqiuK4ffqj0tyEjjPRBrQOlAIo8g2kMC5BCgQzuXBv0jgohNQ0aBFpyeMKQrJ+xyLiW+DfHZ094gfQ1ysDz04Jb93dCdlDYkkWiXUsiuURHfYYQiHSKx3ykJcIQwRYXye7pnuy1T0LV9N/6mib/xaXPLgV2dB/dRtZb4kAl6HEWJYEXCgXH5KvUWoLC0SMeCUfAROiSgoErFQLD9nhYDWRTGgFFhIoPAJUCAU/hixhSQwgIBaHVQ8qJjQzx7J2pRM9hifCdnXFZSpDAmfUCERTyTRIX9r0YiKbpm+0PNSQiRVuT64vSUOwwKg29RZ0C8ioFgcBXzuInEQLILX7YBHPovEZOBw9H46xXSQmhbQTxYSIAFrEKBAsMY4shckkJFAOjFgiIP+0xOiCPq/3evf/bdlvBB3kAAJWIqAGAxZSIAErEyAD3krjy77RgL5I0B7YP7YsmYSIAESIAESMC0BCgTTDh0bTgIkQAIkQAL5I0CBkD+2rJkESIAESIAETEuAAsG0Q8eGkwAJkAAJkED+CFAg5I8tayYBEiABEiAB0xKgQDDt0LHhJEACJEACJJA/AhQI+WPLmkmABEiABEjAtAQoEEw7dGw4CZAACZAACeSPAAVC/tiyZhIgARIgARIwLQEKBNMOHRtOAiRAAiRAAvkjQIGQP7asmQRIgARIgARMS4ACwbRDx4aTAAmQAAmQQP4IUCDkjy1rJgESIAESIAHTEuBqjqYdOjacBEjATAQOHz6cVXPr6urSnv/2229j165daff13zh//nw0Nzf338y/SSAtAQqEtFi4kQRIgARyR6Cnpwc//OEP8dxzz11QpbW1tXj88cdRWVk54PwnnngCDzzwACZNmjRgX98NO3bswPe+9z184xvfgC4BzkIC5yNAgXA+QtxPAiRAAlkS0Afyhg0bsHbt2gE1/elPf8LmzZvx1a9+Na0A0BN8Ph/KysoGnKsbkskk5syZg0ceeQQlJSVpj+nq6sLNN9+MRCKRdj83kkA6AhQI6ahwGwmQAAnkkIAKhFWrVqWt8fXXX8eUKVNw1113weVypT3mfBudTqchIDIJhKKiIloNzgeR+wcQoEAYgIQbSIAESGBkCITDYWzduhWLFi26YHGgLVUrQiwWyygCdB8LCQyXAAXCcInxeBIgARLIEYFjx47hww8/xN13351VjXv37sU3v/lNFDnSB6aFI2Hs2bMnq2vwZPsRoECw35izxyRAAheJQHt7u/G2n7r8li1b0NraipqaGrS1taU2n/n0+/0Z/QrOHCS/qG9BRUUFdKohXdH9paWl6XZxGwlkJECBkBENd5AACZBAbgn89Kc/xQsvvHCmUhUF3d3d+Na3vgX1E+hfvvCFL+DOO+/sv3nA35MnT8Z9992XUUyok+KLL7444DxuIIHBCFAgDEaH+0iABEgghwTUUXHixIlGjRr6+OCDD+KKK64wIgz6XiYSjuCBnz+A48eP99086O8qMNKJDD0p0/ZBK+RO2xOgQLD9LUAAJEACI0Vg3bp1Zy6lb/W//e1vsWbNGnzmM585s11/0X0P/+7hc7Zl+kMdFFVsBIPBjGGMuo+FBIZLgAJhuMR4PAmQAAnkgMDRo0exe/furDMbql/Dyy+/jMsvv3zQVqmT4vr16wc9hjtJoC8BCoS+NPg7CZAACYwQge3btxsJkKZNm3bBV1Tnw1OnTmHFihW45557MtYTiUTw4x//OON+7iCBdAQoENJR4TYSIAESyDMBjWCor69HpjUWhnJ5ffCfPHkSy5cvH9Q6oFMW999//1Cq5DEkcIbAQLfZM7v4CwmQAAmQQD4IaOIitSDMmDEDHo/ngi/RcqTFWKipqanpguvgiSSQiQAFQiYy3E4CJEACeSKgoY2aIOl8Cyyd7/LPPPuM4Zi4dOnS8x3K/SQwbAKcYhg2Mp5AAiRAAsMjsGnTJjz22GNnTtJpAV1dcePGjdAsiP1LNBo1Mh8++eSTSC0TrUs1b9jwSUmn3Hu0Oic+/fTTuOqqq9I6Omp0gx6jyZPUIVJ9FTIlUup/ff5NAkqAAoH3AQmQAAnkmYA+qPUh3bdcc801xp/9t6eOSUUlpPbrug0pcaDHvPXWW3j//ffx9a9/Pe2DXwWBJmB64403jCr17+bm5ozrNaSuy08SSBFwiFJNpv7gJwmQAAmQQO4JaJ6CeDyeVcW6ImTf1R7V8VCXiV68eDGKi9O/62n2xOPHjqPIWYSG+gbMmj0rY7bFrBrHky1JgALBksPKTpEACZAACZBAdgTopJgdP55NAiRAAiRAApYkQIFgyWFlp0iABEiABEggOwIUCNnx49kkQAIkQAIkYEkCFAiWHFZ2igRIgARIgASyI0CBkB0/nk0CJEACJEACliRAgWDJYWWnSIAESIAESCA7AhQI2fHj2SRAAiRAAiRgSQIUCJYcVnaKBEiABEiABLIjQIGQHT+eTQIkQAIkQAKWJECBYMlhZadIgARIgARIIDsCFAjZ8ePZJEACJEACJGBJAhQIlhxWdooESIAESIAEsiNAgZAdP55NAiRAAiRAApYkQIFgyWFlp0iABEiABEggOwIUCNnx49kkQAIkQAIkYEkCFAiWHFZ2igRIgARIgASyI0CBkB0/nk0CJEACJEACliRAgWDJYWWnSIAESIAESCA7AhQI2fHj2SRAAiRAAiRgSQIUCJYcVnaKBEiABEiABLIjQIGQHT+eTQIkQAIkQAKWJECBYMlhZadIgARIgARIIDsCFAjZ8ePZJEACJEACJGBJAhQIlhxWdooESIAESIAEsiNAgZAdP55NAiRAAiRAApYkQIFgyWFlp0iABEiABEggOwIUCNnx49kkQAIkQAIkYEkCFAiWHFZ2igRIgARIgASyI0CBkB0/nk0CJEACJEACliRAgWDJYWWnSIAESIAESCA7AhQI2fHj2SRAAiRAAiRgSQIUCJYcVnaKBEiABEiABLIjQIGQHT+eTQIkQAIkQAKWJECBYMlhZadIgARIgARIIDsCFAjZ8ePZJEACJEACJGBJAhQIlhxWdooESIAESIAEsiNAgZAdP55NAiRAAiRAApYk8P8BaDXolsQUQq0AAAAASUVORK5CYII=;" vertex="1" parent="1">
          <mxGeometry x="1891" y="353" width="520" height="520" as="geometry" />
        </mxCell>
      </root>
    </mxGraphModel>
  </diagram>
</mxfile>
